<?xml version="1.0" standalone="no"?>
<!DOCTYPE svg PUBLIC "-//W3C//DTD SVG 20010904//EN"
 "http://www.w3.org/TR/2001/REC-SVG-20010904/DTD/svg10.dtd">
<svg version="1.0" xmlns="http://www.w3.org/2000/svg"
 width="577.000000pt" height="580.000000pt" viewBox="0 0 577.000000 580.000000"
 preserveAspectRatio="xMidYMid meet">

<g transform="translate(0.000000,580.000000) scale(0.100000,-0.100000)"
fill="#000000" stroke="none">
<path d="M2705 5698 c-125 -7 -302 -41 -422 -82 -102 -35 -229 -89 -217 -93 6
-2 55 14 110 36 291 117 594 157 853 112 68 -12 126 -19 128 -17 3 2 -4 6 -14
9 -115 32 -271 45 -438 35z"/>
<path d="M2692 5528 c-255 -19 -557 -108 -807 -236 -90 -46 -197 -113 -191
-119 2 -3 38 15 78 40 289 175 636 282 1008 309 19 2 31 5 25 8 -5 3 -56 2
-113 -2z"/>
<path d="M3772 5523 c8 -10 137 -172 287 -360 150 -189 277 -343 282 -343 4 0
-98 134 -229 298 -131 163 -259 325 -286 360 -27 34 -53 62 -59 62 -6 0 -3 -8
5 -17z"/>
<path d="M4604 5045 c-4 -8 -1 -44 6 -80 19 -98 13 -109 -67 -130 -98 -26
-102 -30 -52 -48 24 -9 61 -18 82 -22 20 -3 37 -9 37 -14 0 -4 -16 -26 -36
-50 -26 -29 -35 -48 -31 -63 3 -11 -3 -38 -14 -60 -25 -49 -15 -69 46 -94 40
-17 45 -22 45 -51 0 -29 -5 -35 -52 -59 -44 -22 -60 -26 -108 -21 -39 4 -84 0
-155 -17 -85 -20 -100 -26 -98 -42 0 -12 -17 -33 -48 -56 -60 -47 -71 -68
-126 -245 -65 -215 -116 -283 -218 -291 -91 -7 -222 65 -370 203 -38 36 -81
73 -93 82 -13 9 -45 48 -72 87 -71 106 -109 150 -168 197 -43 34 -56 39 -63
28 -16 -26 -9 -48 34 -101 l43 -53 -18 -30 c-43 -72 3 -155 97 -175 28 -5 30
-9 31 -50 3 -101 131 -336 245 -451 107 -109 195 -150 330 -157 81 -4 109 -1
170 18 86 26 175 69 242 117 27 19 51 32 54 29 6 -6 14 -676 9 -676 -2 0 -39
16 -82 36 -169 77 -419 152 -662 199 -104 20 -419 65 -454 65 -3 0 -4 9 -1 19
8 31 -28 171 -51 197 -11 14 -39 29 -61 34 -57 14 -332 12 -357 -1 -19 -10
-20 -9 -14 17 4 16 22 63 39 104 25 60 47 92 114 162 192 203 225 424 82 553
l-44 39 -7 -43 c-10 -56 -27 -82 -88 -130 -149 -118 -412 -128 -480 -19 -40
63 -5 184 80 281 22 25 36 48 31 52 -6 3 -45 6 -87 6 l-78 1 -90 -63 c-154
-106 -306 -232 -458 -377 l-76 -74 -17 79 c-37 173 -46 195 -101 253 -28 30
-53 64 -55 74 -5 27 -194 84 -258 78 -31 -3 -57 2 -92 19 -46 21 -49 25 -49
59 0 32 4 39 29 50 41 17 53 54 49 151 l-3 84 55 3 c89 4 91 10 16 51 -79 45
-88 55 -74 90 31 77 48 128 48 142 0 56 -197 25 -367 -57 -104 -50 -136 -82
-111 -112 8 -9 23 -27 33 -39 10 -12 26 -53 36 -93 10 -39 25 -80 34 -92 11
-16 15 -48 15 -114 l0 -92 -37 -15 c-56 -22 -151 -40 -179 -33 -28 7 -246 -73
-240 -89 2 -5 -8 -25 -21 -43 -102 -136 -116 -336 -42 -598 29 -104 97 -282
139 -364 l21 -41 -35 -207 c-30 -178 -48 -317 -71 -547 -3 -27 -19 -221 -35
-430 -17 -209 -37 -450 -46 -535 -27 -260 -1 -859 38 -884 12 -7 10 -17 -14
-60 -39 -70 -99 -262 -92 -293 9 -35 39 -46 145 -51 113 -5 166 8 175 43 3 13
1 63 -5 112 -16 126 -14 250 2 256 11 4 15 48 21 184 9 242 24 456 37 528 5
33 32 117 59 186 50 127 60 161 126 433 20 82 44 172 54 200 18 51 19 51 20
16 0 -19 7 -213 15 -430 8 -217 20 -558 26 -758 10 -280 16 -362 26 -362 9 0
7 -9 -6 -32 -11 -18 -24 -73 -31 -121 -16 -130 -22 -125 190 -184 30 -8 78
-24 105 -35 78 -33 121 -33 187 -3 31 14 61 32 68 40 16 20 6 56 -27 96 -26
31 -28 37 -30 163 -2 72 -4 149 -5 171 -2 41 27 115 44 115 17 0 138 122 203
205 107 136 263 398 306 513 28 73 18 71 163 27 l83 -25 7 -58 c14 -133 27
-569 21 -714 -6 -140 -5 -159 9 -164 23 -9 21 -69 -3 -91 -13 -12 -26 -54 -41
-125 -24 -120 -21 -137 32 -164 48 -25 222 -38 382 -29 152 8 176 18 176 73 0
52 -41 81 -235 168 -71 31 -131 59 -133 60 -2 1 0 22 3 47 6 36 12 47 29 51
16 4 26 18 34 43 28 97 124 596 138 718 4 30 10 55 14 55 3 0 67 -18 141 -41
74 -23 163 -49 198 -58 l64 -17 17 -69 c62 -261 217 -454 378 -471 55 -6 319
44 376 71 49 24 110 94 137 161 23 54 24 55 59 49 19 -3 95 -10 169 -15 74 -5
135 -11 136 -12 2 -2 5 -141 7 -310 3 -275 2 -308 -12 -308 -21 0 -143 -59
-212 -103 -90 -58 -128 -121 -94 -155 14 -14 42 -17 179 -18 208 -2 363 8 378
23 13 13 13 19 8 193 -2 91 4 143 49 388 29 155 52 285 52 287 0 15 56 1 84
-20 80 -61 136 -67 319 -31 64 12 117 22 117 21 0 -2 13 -92 30 -201 16 -110
32 -235 36 -279 5 -53 12 -84 22 -91 12 -9 14 -26 8 -95 -14 -170 -7 -185 84
-189 119 -5 160 0 181 21 25 25 21 60 -20 185 -21 63 -25 90 -19 130 3 27 7
185 7 351 l1 301 73 22 c107 32 210 85 246 126 31 35 32 38 30 122 -2 48 1
143 5 212 10 152 -6 247 -60 360 -47 97 -167 217 -270 273 l-71 39 -22 106
c-12 59 -34 147 -47 196 -21 74 -23 94 -14 122 7 19 18 34 25 34 55 0 375 678
375 794 0 117 -132 395 -297 625 -32 45 -51 81 -48 91 4 13 -18 27 -97 66 -65
31 -113 48 -130 46 -35 -4 -171 34 -219 60 -34 19 -37 24 -43 81 -5 50 -3 64
11 81 10 12 29 43 43 70 13 26 37 58 52 69 15 11 28 27 28 34 0 7 20 27 44 44
41 29 43 33 34 60 -12 34 -98 110 -188 167 -116 72 -223 103 -236 67z m153
-36 c110 -52 263 -178 263 -216 0 -4 -15 -18 -33 -29 l-33 -22 -65 43 c-72 48
-190 109 -230 119 -23 5 -27 13 -36 68 -6 35 -8 67 -6 71 8 14 73 -2 140 -34z
m-3687 -46 c4 -4 -3 -33 -17 -64 l-25 -57 -76 -11 c-42 -6 -122 -27 -177 -46
l-100 -34 -30 29 c-38 38 -30 52 51 97 132 73 341 122 374 86z m3660 -104 c87
-40 210 -121 210 -137 0 -38 -54 -22 -125 37 -27 23 -80 54 -117 69 -47 19
-68 32 -68 45 0 25 26 21 100 -14z m-3710 -58 c0 -15 -10 -20 -52 -25 -62 -8
-129 -29 -184 -56 -50 -26 -104 -27 -104 -2 0 20 45 40 175 77 103 30 165 32
165 6z m3725 -63 c12 -11 -64 -158 -82 -158 -29 0 -89 32 -98 53 -9 19 -4 30
30 73 l40 51 50 -4 c28 -3 54 -9 60 -15z m-3838 -39 c136 -18 123 -5 123 -118
0 -132 -2 -134 -126 -129 -102 3 -113 -10 -16 -19 l60 -6 4 -61 c5 -77 -12
-121 -54 -135 -48 -17 -102 -13 -131 9 l-25 20 6 148 c4 136 3 151 -16 188
-17 34 -19 44 -9 58 11 15 17 16 41 5 30 -14 46 -3 46 34 0 20 -2 20 97 6z
m3898 -54 c0 -27 -30 -42 -50 -25 -16 13 -15 15 5 32 27 22 45 19 45 -7z m-22
-112 c11 -13 18 -49 22 -123 8 -121 5 -128 -66 -136 -60 -7 -86 2 -96 33 -13
38 -6 147 10 152 6 2 30 24 51 48 44 48 55 51 79 26z m-163 -193 c0 -48 27
-80 68 -80 26 -1 26 -2 -22 -46 l-48 -45 -25 33 c-14 18 -36 56 -50 83 -22 44
-24 46 -19 17 3 -18 24 -60 47 -93 40 -59 41 -60 60 -43 44 39 49 -30 11 -141
-17 -49 -25 -123 -42 -408 l-22 -348 36 -55 37 -55 49 42 50 42 -6 361 c-4
204 -12 392 -19 432 -11 65 -10 74 7 95 12 17 16 33 12 54 -6 28 -4 27 30 -17
20 -27 40 -48 44 -48 4 0 28 21 54 48 49 50 82 106 75 125 -2 7 -11 -5 -20
-25 -15 -35 -92 -128 -106 -128 -7 0 -91 105 -91 114 0 3 11 6 25 6 36 0 75
42 75 80 l0 31 29 -16 c16 -8 67 -26 113 -39 56 -16 82 -29 81 -38 -3 -17 193
-122 212 -114 8 3 31 -15 56 -42 133 -151 319 -528 319 -646 0 -87 -328 -776
-369 -776 -11 0 -54 31 -88 63 -43 40 -42 62 6 228 62 210 122 361 173 436 27
39 28 44 14 65 -25 39 -250 197 -262 185 -15 -15 -15 -388 -1 -537 9 -85 14
-156 12 -158 -6 -6 -336 -52 -372 -52 -29 0 -33 3 -33 25 0 26 0 26 -77 23
-73 -3 -77 -4 -83 -28 -5 -23 -10 -25 -51 -22 -64 3 -172 22 -188 31 -10 7
-15 51 -18 182 -2 96 -9 219 -14 274 -6 55 -13 170 -17 255 -5 121 -8 142 -12
95 -3 -33 -3 -112 1 -175 l7 -115 -36 -32 c-89 -78 -282 -153 -396 -153 -203
0 -382 140 -511 398 -23 48 -51 110 -61 138 l-18 51 33 41 c47 60 65 62 116
12 l44 -43 -55 -51 c-30 -29 -54 -57 -54 -63 0 -6 27 16 60 49 l60 60 39 -35
c47 -42 143 -107 196 -132 58 -27 153 -32 200 -9 72 34 112 111 185 354 29 97
36 109 83 153 39 38 52 45 59 34 6 -12 25 -10 120 17 98 27 113 34 116 54 3
19 10 22 45 22 23 0 58 8 77 19 49 26 50 26 50 -19z m-187 -10 c4 -17 -4 -23
-66 -41 -40 -11 -85 -25 -101 -30 -34 -11 -50 -1 -44 27 2 15 24 24 98 40 52
12 98 23 101 23 4 1 9 -8 12 -19z m-3706 -24 c-7 -42 13 -73 61 -93 l35 -14
-44 -45 -44 -45 -34 38 c-18 21 -44 61 -58 88 -17 37 -22 42 -18 20 6 -32 63
-121 95 -150 19 -17 21 -16 60 26 31 33 39 38 35 22 -4 -14 1 -35 11 -52 16
-26 16 -33 1 -97 -9 -38 -28 -211 -42 -384 -14 -173 -27 -322 -28 -330 -4 -18
-20 30 -88 263 -28 97 -55 177 -59 177 -5 0 12 -66 36 -147 24 -82 54 -183 66
-227 26 -89 15 -80 258 -231 69 -43 154 -97 190 -120 36 -23 98 -63 138 -89
l73 -46 -45 -63 c-24 -34 -52 -62 -60 -62 -9 0 -201 79 -427 175 l-411 175
-58 120 c-119 246 -179 445 -187 626 -8 158 17 252 88 338 18 21 21 22 37 9
15 -14 27 -11 125 30 71 31 106 51 103 59 -3 8 5 15 22 19 15 3 56 14 92 24
36 10 69 18 74 19 5 0 6 -14 3 -33z m364 -11 c29 -4 36 -9 32 -24 -4 -15 14
-24 109 -58 93 -33 115 -38 124 -27 8 11 19 5 51 -29 55 -57 67 -83 97 -221
l26 -120 -24 -25 c-14 -14 -35 -48 -48 -76 -22 -47 -23 -60 -21 -242 1 -106
-1 -193 -5 -193 -14 0 -146 90 -179 123 -34 32 -42 31 -21 -2 9 -15 6 -61 -12
-210 l-23 -191 -36 22 c-199 122 -246 156 -241 174 2 10 5 188 5 394 0 340 -2
380 -19 428 -13 39 -16 66 -11 99 6 43 7 44 21 24 8 -11 21 -21 27 -21 15 0
68 63 90 107 29 55 18 61 -13 8 -34 -57 -64 -95 -77 -95 -4 0 -20 15 -35 34
-26 33 -27 35 -8 41 30 10 70 63 70 96 l0 29 43 -20 c23 -10 58 -22 78 -25z
m-579 -24 c0 -2 -42 -21 -93 -43 -91 -37 -93 -38 -112 -20 -18 18 -16 20 85
59 91 35 104 38 112 24 6 -9 9 -18 8 -20z m748 -1 c93 -29 97 -31 92 -55 -5
-29 1 -30 -129 17 -76 27 -95 43 -76 61 9 10 5 10 113 -23z m3938 -15 c90 -43
95 -47 79 -62 -16 -16 -23 -15 -113 30 -81 40 -94 50 -84 62 7 8 15 15 18 15
2 0 48 -20 100 -45z m-2053 -32 c36 -33 75 -82 136 -173 l44 -65 -36 -33 c-21
-18 -39 -28 -41 -21 -2 6 -26 18 -53 28 -81 27 -112 92 -72 152 l24 35 -44 49
c-24 28 -43 59 -43 73 l0 23 28 -19 c15 -11 41 -33 57 -49z m-615 -327 c0 -3
-66 -82 -280 -334 -63 -75 -134 -176 -212 -305 -177 -291 -189 -309 -194 -304
-4 4 92 166 260 439 22 37 124 166 226 287 161 192 200 234 200 217z m-450
-40 c0 -2 -47 -39 -105 -82 -57 -43 -104 -83 -103 -89 3 -42 -4 -52 -41 -63
-94 -29 -72 -4 142 165 82 65 107 81 107 69z m3128 -248 c82 -55 142 -103 155
-124 4 -8 -4 -32 -22 -62 -36 -57 -99 -214 -142 -349 -43 -138 -40 -131 -49
-107 -25 65 -48 694 -25 694 3 0 41 -23 83 -52z m-3353 -59 c-9 -35 -37 -126
-62 -201 -44 -135 -46 -138 -74 -138 -16 0 -29 3 -29 6 0 12 52 369 53 369 37
11 123 30 125 29 2 -1 -4 -30 -13 -65z m740 -107 c-133 -120 -188 -176 -339
-350 -93 -106 -171 -190 -174 -187 -3 3 6 18 20 33 13 15 90 102 170 193 137
157 347 364 358 352 3 -2 -13 -21 -35 -41z m-1280 -108 c28 -20 66 -44 86 -54
l37 -19 6 -93 c8 -100 23 -239 31 -275 5 -21 2 -23 -37 -23 -35 0 -58 11 -135
61 -51 34 -93 62 -93 63 0 0 9 71 20 156 11 85 20 170 20 188 0 17 3 32 8 32
4 0 30 -16 57 -36z m1679 -34 c35 -13 47 -35 67 -117 26 -114 23 -117 -105
-109 -55 3 -164 9 -241 12 -77 4 -144 9 -149 12 -10 6 0 118 15 161 20 56 44
62 227 56 90 -4 174 -10 186 -15z m-1254 -111 c0 -3 -11 -39 -25 -79 -16 -47
-21 -76 -15 -80 12 -8 -33 -137 -56 -160 -13 -13 -14 -11 -5 15 5 17 17 89 26
160 9 72 18 135 20 140 3 10 55 14 55 4z m-1099 -199 l224 -95 -53 -3 c-45 -3
-52 -6 -52 -24 0 -19 -4 -20 -57 -13 -50 6 -355 64 -360 68 -1 2 15 102 33
197 l6 35 18 -35 c17 -32 34 -42 241 -130z m2214 75 c532 -18 1070 -130 1383
-289 47 -24 48 -25 44 -66 -2 -22 -7 -40 -11 -38 -3 2 -67 33 -141 70 -246
121 -534 196 -930 242 -251 29 -598 50 -620 36 -6 -4 13 -23 47 -45 92 -60
208 -180 296 -304 92 -132 145 -188 202 -216 38 -19 65 -20 588 -23 l549 -2
-6 -63 c-3 -34 -11 -132 -17 -217 -5 -85 -12 -156 -14 -159 -4 -3 -210 43
-920 209 -547 128 -634 151 -565 145 36 -3 102 -8 148 -12 l82 -6 0 26 c0 14
-6 32 -14 40 -8 7 -28 41 -44 73 -80 158 -210 319 -333 412 l-56 42 9 67 c14
101 9 96 81 89 34 -3 143 -8 242 -11z m197 -81 c287 -25 605 -82 793 -141 158
-50 435 -179 435 -203 0 -39 -13 -37 -123 20 -135 70 -246 110 -398 143 -170
38 -259 51 -270 40 -6 -6 5 -39 29 -89 53 -106 113 -269 106 -287 -7 -20 -51
-23 -269 -23 -194 1 -209 4 -280 64 -36 30 -110 122 -162 199 -50 76 -181 212
-249 259 -30 20 -54 39 -54 42 0 7 247 -6 442 -24z m1658 -38 c0 -18 -13 -21
-80 -21 -44 0 -55 3 -58 18 -3 15 5 17 67 17 54 0 71 -3 71 -14z m-2094 -118
c75 -65 140 -139 192 -215 41 -62 112 -185 112 -196 0 -11 -59 -8 -81 3 -10 6
-30 33 -44 60 -35 68 -68 84 -162 77 l-72 -5 -5 31 c-3 18 -10 72 -17 122 -6
49 -15 102 -19 116 -4 14 -6 38 -3 52 6 33 15 29 99 -45z m-1752 46 c30 -5 46
-12 46 -21 0 -11 -15 -13 -67 -11 -55 2 -68 6 -71 21 -4 19 14 21 92 11z m120
-35 c5 -5 -4 -6 -20 -4 -16 2 -32 4 -36 4 -5 1 -8 8 -8 16 0 12 5 13 28 3 15
-7 31 -15 36 -19z m630 15 c3 -9 6 -31 6 -50 0 -33 -1 -34 -39 -34 -44 0 -75
25 -50 41 8 5 22 9 32 9 20 0 23 20 5 38 -9 9 -6 12 14 12 14 0 29 -7 32 -16z
m3522 -39 c1 -28 -9 -46 -56 -98 -49 -55 -58 -62 -68 -48 -10 14 -11 14 -11 0
-1 -27 71 -101 123 -125 52 -24 102 -32 91 -14 -7 11 4 60 15 60 12 0 69 -245
90 -388 33 -225 41 -440 43 -1135 2 -584 0 -669 -13 -677 -17 -11 -96 -13
-164 -4 -54 8 -48 -10 -71 199 -19 173 -105 694 -199 1205 -36 195 -70 382
-76 415 -6 33 -17 76 -25 95 -7 20 -16 57 -20 84 -9 59 -39 94 -85 101 l-35 5
32 -12 c50 -20 61 -37 78 -118 l15 -75 -45 -170 c-80 -301 -212 -956 -320
-1600 -19 -111 -32 -164 -44 -173 -20 -17 -102 -11 -153 11 l-38 16 0 363 c0
475 21 984 65 1568 8 107 18 231 21 275 12 157 21 256 25 259 2 2 45 -5 94
-15 50 -10 102 -19 117 -19 16 0 31 -8 37 -17 8 -15 21 -17 85 -15 53 3 76 7
76 16 0 9 25 15 78 20 83 7 314 44 321 52 9 8 15 -8 17 -41z m-3582 26 c3 -5
-14 -14 -39 -20 -87 -22 -67 -46 50 -61 157 -20 178 -24 189 -43 25 -41 -69
-81 -219 -94 -85 -7 -121 7 -193 72 l-47 43 39 56 38 56 89 0 c48 0 90 -4 93
-9z m89 -11 c-3 -12 -8 -19 -11 -16 -5 6 5 36 12 36 2 0 2 -9 -1 -20z m112
-13 c7 -6 2 -8 -15 -3 -14 3 -33 6 -42 6 -10 0 -18 4 -18 10 0 12 61 2 75 -13z
m2003 -28 c148 -33 237 -65 381 -135 l134 -65 -6 -65 c-2 -36 -7 -68 -10 -70
-7 -7 -297 -11 -297 -4 0 3 7 14 15 24 21 28 19 79 -4 100 -33 30 -124 24
-204 -13 -37 -16 -79 -39 -94 -51 -15 -11 -29 -17 -33 -13 -4 4 -19 44 -34 87
-15 43 -43 110 -61 148 -56 113 -58 107 37 92 46 -8 125 -23 176 -35z m-3320
-3 c54 -13 147 -32 205 -41 101 -17 107 -19 107 -41 0 -21 5 -24 43 -24 23 0
58 -3 79 -6 33 -6 37 -4 40 17 3 22 10 24 103 35 55 6 118 15 141 19 l41 7 11
-124 c14 -137 15 -198 6 -198 -18 0 -78 46 -114 87 -22 25 -40 39 -40 32 0
-19 86 -103 128 -123 l32 -17 0 -102 c0 -113 -9 -218 -44 -542 -14 -121 -29
-294 -35 -385 -6 -91 -22 -252 -37 -358 l-27 -194 -56 -45 c-68 -55 -78 -72
-83 -143 l-5 -55 -53 2 c-29 2 -55 5 -57 7 -5 4 -17 330 -43 1101 -12 373 -20
525 -29 525 -10 0 -72 -222 -125 -448 -20 -85 -57 -206 -89 -287 -41 -103 -59
-163 -66 -225 -9 -69 -41 -585 -41 -652 0 -16 -12 -18 -105 -18 -58 0 -105 3
-105 8 0 4 -7 75 -15 157 -25 254 -30 510 -11 670 8 77 23 228 31 335 42 524
57 675 64 678 50 17 163 123 148 138 -2 3 -15 -9 -27 -26 -25 -35 -96 -90
-116 -90 -7 0 -11 9 -9 23 2 12 6 51 9 87 12 130 29 240 37 240 4 0 52 -11
107 -24z m1072 4 c0 -5 -7 -10 -15 -10 -8 0 -15 5 -15 10 0 6 7 10 15 10 8 0
15 -4 15 -10z m3190 -2 c0 -5 -29 -8 -65 -8 -36 0 -65 4 -65 8 0 5 29 8 65 8
36 -1 65 -4 65 -8z m-3036 -14 c4 -10 1 -14 -6 -12 -15 5 -23 28 -10 28 5 0
13 -7 16 -16z m698 -7 c4 -7 8 -69 8 -138 0 -111 -2 -129 -20 -152 -20 -25
-153 -87 -188 -87 -27 0 -138 74 -153 102 -12 23 -31 261 -22 284 6 17 364 8
375 -9z m-498 -54 c-6 -2 -9 -16 -6 -32 3 -23 -1 -32 -19 -42 -13 -6 -27 -17
-31 -23 -5 -6 -8 -1 -8 12 0 13 4 21 9 17 10 -6 41 21 41 36 0 14 -11 11 -46
-16 -33 -25 -64 -33 -64 -16 0 5 7 14 15 21 17 14 20 56 5 65 -8 5 -7 11 0 21
10 11 20 9 63 -13 29 -14 47 -28 41 -30z m3329 22 c22 -19 44 -35 48 -35 4 0
-4 -34 -18 -75 -21 -63 -28 -75 -46 -75 -31 0 -96 40 -120 72 l-20 27 54 60
c30 33 56 60 57 60 2 1 22 -15 45 -34z m-3920 -9 c9 -1 29 -14 45 -28 15 -14
46 -39 69 -55 41 -29 42 -31 24 -47 -10 -9 -43 -26 -72 -37 -29 -11 -64 -29
-78 -41 l-26 -20 -7 69 c-3 37 -9 92 -12 122 -6 52 -6 53 16 46 13 -3 31 -8
41 -9z m-415 -6 c32 0 42 -4 42 -16 0 -14 -10 -16 -65 -12 -35 2 -67 7 -71 10
-12 13 9 30 30 24 11 -3 40 -6 64 -6z m827 -104 c12 -12 11 -16 -5 -31 -19
-18 -20 -17 -20 13 0 35 5 39 25 18z m95 -43 c0 -53 -2 -58 -42 -96 -78 -74
-168 -119 -168 -84 0 7 20 33 45 57 57 56 61 90 11 90 -19 0 -37 -3 -39 -7 -3
-5 -12 -53 -21 -108 -9 -55 -19 -112 -22 -126 l-5 -26 -148 30 -149 31 -6 61
-6 60 40 36 c23 22 54 39 75 42 19 3 48 15 64 26 l28 20 13 -57 c19 -87 36
-122 59 -122 30 0 40 29 34 97 -6 62 5 85 30 65 11 -8 27 -9 90 -4 9 1 25 11
34 22 12 13 24 18 41 13 18 -4 24 -1 29 16 9 35 13 24 13 -36z m-230 24 c0 -7
-5 -18 -11 -24 -7 -7 -11 -40 -10 -82 1 -38 -2 -72 -7 -75 -18 -11 -34 15 -52
85 -29 109 -29 109 30 109 34 0 50 -4 50 -13z m1180 -62 c17 -9 39 -34 51 -58
32 -63 48 -77 88 -77 45 0 85 -20 89 -44 4 -16 -1 -18 -40 -13 -23 4 -108 12
-188 18 -80 6 -149 15 -153 19 -5 4 -11 42 -14 83 l-5 76 38 4 c81 8 106 7
134 -8z m1204 -6 c12 -11 -19 -79 -36 -80 -7 0 -60 -3 -117 -5 -116 -4 -120 2
-33 54 78 45 157 58 186 31z m-2324 -59 c0 -5 -2 -10 -4 -10 -3 0 -8 5 -11 10
-3 6 -1 10 4 10 6 0 11 -4 11 -10z m290 -37 c0 -15 18 -80 40 -144 48 -142 65
-211 85 -355 19 -141 45 -397 40 -402 -5 -5 -188 48 -198 57 -4 4 8 48 26 97
19 49 51 140 71 202 35 108 36 116 26 175 -6 34 -31 121 -55 192 -48 146 -61
205 -45 205 5 0 10 -12 10 -27z m1365 -238 c369 -86 675 -157 680 -159 6 -1
-69 -1 -166 2 -129 3 -178 1 -183 -7 -16 -25 79 -141 158 -192 33 -22 54 -39
49 -39 -6 0 -95 18 -198 40 -140 30 -195 47 -218 64 -18 14 -60 40 -94 59 -59
34 -63 35 -130 27 -37 -5 -82 -13 -98 -19 -25 -9 -68 -3 -263 38 -128 27 -234
50 -235 52 -2 2 -1 70 1 151 3 105 7 146 15 143 7 -3 314 -74 682 -160z
m-1860 90 c66 -14 123 -25 127 -25 4 0 6 -6 3 -12 -2 -7 -9 -39 -15 -72 l-12
-58 -32 31 c-124 120 -216 6 -216 -267 0 -122 -7 -135 -43 -74 -18 30 -18 38
-3 184 9 84 18 191 20 238 3 47 5 86 5 88 1 1 11 0 24 -3 12 -3 76 -16 142
-30z m3415 -52 c0 -5 18 -102 40 -218 21 -115 38 -209 37 -210 -1 -1 -21 -9
-44 -20 -24 -10 -43 -21 -43 -25 0 -4 20 -10 45 -13 26 -2 49 -7 52 -11 3 -3
18 -74 33 -157 l27 -152 -171 7 c-93 4 -171 8 -173 10 -9 9 119 580 173 774 6
20 24 32 24 15z m607 -73 c181 -111 289 -290 293 -487 4 -169 -9 -414 -22
-430 -26 -32 -115 -81 -202 -112 -105 -37 -116 -38 -116 -8 0 20 10 26 73 46
123 39 187 71 193 98 7 28 -11 53 -38 53 -10 0 -35 -7 -56 -16 -20 -8 -68 -24
-105 -34 l-68 -19 3 31 c3 27 8 32 58 47 107 34 178 82 222 150 28 45 37 91
17 91 -5 0 -27 -11 -47 -25 -35 -24 -205 -85 -237 -85 -12 0 -15 16 -15 78 0
42 -3 106 -6 142 l-6 65 93 16 c107 19 174 43 163 60 -15 24 -76 39 -162 39
l-89 0 -7 31 c-3 17 -6 55 -7 83 0 28 -6 93 -13 144 -6 50 -9 92 -6 92 3 0 42
-22 87 -50z m-3934 -51 c5 -9 7 -32 3 -52 -6 -34 -8 -35 -41 -30 -71 11 -119
-88 -118 -247 0 -57 7 -122 17 -162 13 -48 15 -76 8 -95 -9 -27 -9 -27 -25 22
-62 188 -39 471 45 555 24 25 37 30 66 28 19 -2 39 -10 45 -19z m1307 -114
c117 -25 215 -46 216 -48 2 -2 -17 -23 -41 -46 -96 -92 -155 -277 -155 -483 0
-80 -3 -108 -12 -108 -12 0 -299 80 -306 86 -2 1 6 77 17 168 11 91 26 235 33
321 8 103 16 155 23 155 6 0 108 -20 225 -45z m953 26 l-52 -6 49 -59 c88
-107 156 -138 344 -157 61 -6 115 -15 120 -20 13 -12 -11 -11 -175 1 -151 12
-212 28 -281 72 -45 28 -148 144 -148 166 0 6 39 10 98 9 74 0 85 -1 45 -6z
m-2273 -31 c0 -27 -90 -374 -99 -383 -15 -15 -34 122 -28 212 6 105 36 179 77
193 24 8 50 -3 50 -22z m2448 23 c-10 -2 -26 -2 -35 0 -10 3 -2 5 17 5 19 0
27 -2 18 -5z m76 -29 c60 -8 134 -21 165 -28 l56 -13 -4 -69 c-2 -38 -4 -70
-6 -72 -6 -7 -255 29 -294 42 -55 20 -109 60 -155 115 -20 23 -36 45 -36 48 0
7 148 -6 274 -23z m9 19 c-7 -2 -19 -2 -25 0 -7 3 -2 5 12 5 14 0 19 -2 13 -5z
m60 -10 c-7 -2 -19 -2 -25 0 -7 3 -2 5 12 5 14 0 19 -2 13 -5z m112 -18 c28
-7 41 -13 30 -13 -11 0 -42 6 -70 13 -27 7 -41 13 -30 13 11 0 43 -6 70 -13z
m-762 -124 c14 -2 100 -127 137 -201 76 -151 110 -300 113 -495 l2 -120 45 -8
c25 -5 57 -11 72 -15 l28 -7 -24 -51 c-29 -63 -85 -127 -130 -148 -29 -14
-170 -46 -202 -46 -6 0 5 17 25 38 153 161 162 540 20 812 -47 91 -105 160
-172 205 -49 33 -49 33 -21 37 24 3 67 3 107 -1z m120 -12 c269 -60 334 -70
480 -74 81 -2 157 -7 167 -10 18 -6 20 -16 20 -88 0 -45 -3 -106 -7 -135 l-6
-54 -76 4 c-61 2 -76 0 -76 -11 0 -14 20 -20 128 -45 23 -5 27 -11 27 -40 0
-34 0 -35 -32 -24 -18 5 -78 23 -133 39 -137 39 -138 37 -91 -114 21 -68 47
-128 62 -146 28 -33 76 -51 142 -51 40 0 42 -2 42 -29 0 -55 -7 -61 -71 -61
-63 0 -341 27 -398 39 l-34 6 2 96 c5 231 -73 488 -197 652 -28 37 -49 67 -46
67 2 0 46 -9 97 -21z m-245 -16 c112 -57 224 -225 273 -413 19 -69 23 -111 22
-225 0 -121 -4 -150 -26 -218 -81 -251 -287 -304 -459 -118 -219 236 -263 699
-87 922 63 80 177 101 277 52z m-2031 -73 c16 0 20 -13 31 -88 6 -49 19 -108
28 -133 9 -24 16 -53 16 -64 -2 -30 -88 -285 -137 -406 -24 -59 -48 -124 -54
-145 -12 -41 -46 -93 -55 -83 -3 3 8 95 24 206 16 111 33 284 39 385 6 101 15
228 22 284 l11 100 28 -28 c16 -15 37 -28 47 -28z m4413 -207 c0 -3 -11 -26
-25 -49 -42 -71 -135 -131 -247 -158 -28 -6 -28 -6 -28 48 l0 55 43 11 c83 22
163 51 202 74 43 26 55 30 55 19z m-1482 -88 c16 -15 -16 -16 -71 -2 l-62 16
64 -4 c35 -3 67 -7 69 -10z m672 -40 c36 -2 73 -4 82 -5 13 0 20 -11 24 -37 8
-54 4 -58 -46 -55 -58 4 -279 32 -306 38 -21 5 -22 15 -9 61 4 12 51 11 255
-2z m-832 -32 c86 -24 96 -29 107 -57 15 -37 37 -194 29 -207 -9 -15 -87 -10
-124 9 -19 9 -41 29 -48 44 -13 27 -72 216 -72 231 0 10 5 10 108 -20z m136
-39 c13 -5 16 -21 15 -83 l-1 -76 -9 60 c-5 33 -13 70 -19 83 -10 24 -10 25
14 16z m661 -30 c83 -9 152 -18 154 -20 2 -1 6 -23 8 -47 l5 -44 -103 -5
c-119 -5 -172 -24 -238 -83 -64 -58 -57 -67 47 -60 48 4 128 11 179 16 139 14
143 13 143 -16 0 -14 -3 -25 -7 -25 -5 0 -71 -6 -148 -14 -77 -8 -184 -17
-237 -20 -116 -7 -108 -24 -73 165 37 200 29 182 78 176 23 -4 110 -14 192
-23z m-3571 -405 c32 -25 55 -68 48 -89 -3 -8 -14 -23 -24 -35 -11 -11 -22
-32 -25 -47 -3 -16 -9 -28 -12 -28 -4 0 -20 21 -36 46 -16 25 -41 52 -57 60
-33 17 -33 17 -11 52 43 69 70 78 117 41z m-97 -119 c12 -11 38 -44 57 -73 28
-42 36 -64 36 -100 l0 -46 -32 10 c-40 11 -38 11 -38 0 0 -5 16 -12 35 -15 29
-6 35 -11 35 -32 0 -24 -2 -25 -40 -19 -51 9 -52 -1 -1 -15 l39 -10 4 -64 3
-64 -52 57 c-56 61 -66 88 -79 230 -7 82 -24 107 -76 118 l-31 6 24 18 c32 25
90 24 116 -1z m-58 -69 c4 -9 11 -52 15 -96 9 -114 21 -149 73 -207 69 -78 90
-142 58 -184 -14 -18 -14 -18 -15 9 0 43 -23 89 -73 145 -50 56 -64 92 -73
192 -3 36 -10 79 -15 96 -9 30 -43 54 -76 54 -22 0 -5 17 22 22 28 6 74 -11
84 -31z m-75 -13 c31 -13 32 -18 46 -132 13 -106 28 -145 76 -198 40 -44 73
-111 74 -146 0 -57 -104 -50 -156 11 -92 108 -159 402 -104 457 23 23 30 24
64 8z m-630 -235 c4 -54 11 -130 16 -170 15 -113 13 -115 -145 -115 -119 1
-145 10 -145 51 0 36 63 220 97 284 l26 47 73 0 72 0 6 -97z m540 57 c3 -22
17 -75 31 -117 13 -42 22 -79 20 -81 -2 -2 -32 5 -66 17 -69 23 -83 25 -75 12
3 -4 41 -19 84 -31 64 -19 81 -28 95 -52 9 -16 17 -33 17 -38 0 -9 -229 58
-249 74 -11 8 -12 29 -7 93 10 132 29 162 102 163 41 0 42 -1 48 -40z m1328
-18 c-5 -70 -47 -91 -112 -57 -26 14 -30 21 -30 59 0 23 2 45 4 47 2 2 35 3
73 1 l68 -3 -3 -47z m-122 -67 c29 -17 93 -19 121 -5 14 8 27 6 51 -6 l32 -17
-29 -23 c-37 -29 -24 -32 16 -4 25 19 31 19 55 7 l26 -14 -27 -21 c-15 -12
-23 -22 -18 -22 6 0 22 9 36 20 l25 20 65 -30 c35 -16 79 -41 96 -56 30 -25
31 -28 14 -38 -24 -13 -258 -17 -361 -5 -46 6 -105 18 -130 27 -45 17 -47 19
-46 58 1 54 22 124 37 124 7 -1 23 -7 37 -15z m3228 -150 c13 -38 26 -93 29
-121 7 -66 -2 -71 -124 -73 -82 -2 -94 0 -114 20 -19 19 -21 28 -15 82 3 33 6
84 6 114 l0 54 97 -3 96 -3 25 -70z m-1132 39 c22 -9 65 -16 100 -16 l62 0 6
-36 c3 -20 6 -65 6 -99 0 -51 -3 -64 -19 -73 -12 -6 -117 -10 -270 -10 -226 0
-251 2 -260 17 -23 42 39 102 192 182 106 55 125 59 183 35z m-2937 -25 c21
-35 18 -54 -10 -70 -18 -9 -19 -5 -19 46 0 30 2 55 5 55 3 0 14 -14 24 -31z
m1109 -74 c205 0 213 -1 210 -19 -5 -32 -58 -38 -283 -34 -190 3 -213 5 -245
23 -26 16 -36 29 -38 51 l-3 31 73 -26 c69 -24 84 -25 286 -26z"/>
<path d="M4330 3855 c0 -44 1 -45 51 -70 l50 -26 56 26 c31 14 54 28 50 31 -3
3 -23 -4 -46 -15 -22 -12 -47 -21 -55 -21 -23 0 -86 32 -86 44 0 6 -3 21 -6
34 -6 22 -5 22 89 22 53 0 99 4 102 10 4 6 -32 10 -99 10 l-106 0 0 -45z"/>
<path d="M4832 3865 c2 -3 47 -6 99 -8 92 -4 94 -4 97 -29 3 -22 -3 -27 -56
-46 -71 -26 -71 -26 -102 -2 -14 11 -31 20 -39 20 -8 0 5 -13 27 -30 l41 -30
71 26 70 26 0 39 0 39 -107 0 c-58 0 -104 -2 -101 -5z"/>
<path d="M5180 2925 c0 -2 19 -14 43 -26 23 -12 54 -33 70 -47 15 -14 27 -21
27 -16 0 15 -39 49 -85 73 -39 21 -55 25 -55 16z"/>
<path d="M298 3886 c-20 -6 -39 -14 -43 -17 -8 -9 24 -138 41 -166 8 -12 23
-27 34 -33 17 -9 22 -5 40 30 17 33 19 47 11 78 -5 20 -15 56 -21 80 -6 23
-14 42 -18 41 -4 -1 -24 -6 -44 -13z m57 -70 c17 -62 16 -95 -4 -126 -17 -25
-47 15 -65 85 -20 82 -20 84 7 95 39 16 44 11 62 -54z"/>
<path d="M1055 3840 c22 -5 68 -9 103 -9 l62 -1 0 -35 c0 -30 -4 -37 -36 -50
-48 -20 -66 -19 -114 6 -23 12 -43 19 -46 17 -2 -3 19 -18 48 -33 l53 -27 50
19 c47 17 50 21 57 63 4 24 7 45 5 46 -1 1 -51 5 -112 8 -77 4 -98 3 -70 -4z"/>
<path d="M2682 3290 c-31 -13 -54 -72 -50 -128 3 -46 4 -47 43 -53 22 -4 104
-9 182 -12 179 -6 182 -5 165 84 -19 102 -32 110 -188 115 -72 2 -139 -1 -152
-6z m297 -35 c24 -31 46 -124 32 -138 -6 -6 -78 -6 -185 -2 l-176 7 0 57 c0
97 6 101 170 101 136 0 139 0 159 -25z"/>
<path d="M4410 2642 c-15 -27 -41 -57 -63 -72 -21 -13 -33 -26 -27 -28 29 -10
129 106 118 138 -1 5 -14 -12 -28 -38z"/>
<path d="M390 2066 c-6 -20 -21 -43 -33 -51 -11 -8 -19 -17 -16 -19 9 -9 59
44 65 70 10 39 -3 39 -16 0z"/>
<path d="M347 1364 c25 -14 37 -15 55 -6 22 10 22 11 -7 11 -16 1 -41 4 -55 6
-21 5 -20 3 7 -11z"/>
<path d="M1028 1217 c-80 -142 -104 -196 -122 -279 -4 -16 -2 -28 3 -28 4 0
11 19 15 43 7 43 80 200 136 295 17 28 28 52 23 52 -4 0 -29 -37 -55 -83z"/>
<path d="M2004 2647 c3 -71 11 -137 16 -148 17 -31 111 -89 146 -89 44 0 160
55 180 85 14 21 16 46 12 145 -2 66 -6 121 -9 124 -2 2 -82 6 -178 8 l-174 4
7 -129z"/>
<path d="M3130 1697 c-88 -46 -140 -170 -140 -329 1 -321 231 -586 406 -466
38 26 69 70 97 139 28 72 30 263 4 354 -43 145 -128 264 -217 304 -59 27 -97
26 -150 -2z m154 -14 c80 -41 165 -170 201 -308 18 -69 21 -221 5 -291 -27
-119 -98 -194 -183 -194 -82 0 -150 48 -216 155 -85 134 -112 358 -61 499 50
138 148 192 254 139z"/>
<path d="M183 260 c26 -17 160 -25 183 -12 15 9 5 11 -46 10 -36 -1 -85 2
-110 6 -35 5 -41 4 -27 -4z"/>
<path d="M5253 253 c15 -2 39 -2 55 0 15 2 2 4 -28 4 -30 0 -43 -2 -27 -4z"/>
<path d="M5190 148 c0 -5 41 -8 90 -8 50 0 90 4 90 8 0 4 -40 8 -90 7 -49 0
-90 -3 -90 -7z"/>
<path d="M4155 289 c-51 -38 -62 -49 -49 -49 5 0 34 18 64 40 30 22 48 40 40
39 -8 0 -33 -14 -55 -30z"/>
<path d="M4318 164 c-4 -3 -91 -8 -194 -10 -103 -2 -190 -7 -193 -10 -11 -12
430 3 442 15 8 8 3 11 -19 11 -17 0 -33 -3 -36 -6z"/>
<path d="M3639 4992 c43 -30 562 -293 572 -290 5 2 -37 27 -93 56 -57 29 -191
97 -298 152 -107 55 -197 100 -200 99 -3 0 6 -8 19 -17z"/>
<path d="M2646 4904 c-36 -20 -71 -58 -97 -107 -16 -31 -23 -36 -43 -31 -31 7
-83 -20 -92 -48 -18 -55 4 -114 65 -172 17 -17 31 -37 31 -46 0 -32 -31 -106
-55 -132 -29 -31 -31 -40 -10 -32 20 8 55 66 70 117 l12 42 59 0 c54 0 59 2
80 32 19 28 24 31 34 18 7 -8 19 -15 28 -15 10 0 6 8 -12 25 -17 16 -26 32
-22 41 3 9 6 18 6 20 0 13 31 1 44 -18 13 -18 16 -19 16 -5 0 13 8 17 33 17
17 0 42 3 53 6 20 5 22 1 26 -52 4 -48 2 -61 -13 -74 -10 -8 -24 -33 -31 -55
-13 -40 -14 -40 -63 -40 -46 0 -51 -3 -79 -41 -20 -27 -42 -44 -61 -48 -16 -4
-65 -23 -107 -43 -99 -46 -113 -42 -104 32 6 50 4 55 -13 55 -26 0 -122 -106
-151 -166 -13 -27 -25 -75 -28 -106 -4 -53 -2 -59 25 -87 36 -35 87 -51 168
-51 166 0 331 95 360 207 11 42 10 52 -5 83 -21 41 -46 65 -79 78 l-24 9 34
37 c32 35 36 36 67 25 41 -14 57 -2 74 53 6 22 20 45 29 52 15 10 18 26 18 79
-1 63 1 67 35 97 63 56 70 137 17 200 -31 38 -95 50 -156 30 -33 -11 -38 -10
-51 9 -18 25 -48 26 -88 5z"/>
<path d="M3562 4619 c-18 -17 -32 -36 -32 -41 0 -6 13 4 29 21 37 39 64 39 93
0 37 -51 63 -55 120 -19 27 16 57 30 66 30 9 0 36 -21 59 -47 l41 -48 47 25
c46 23 48 23 77 7 40 -23 61 -21 84 5 l19 22 -29 -18 c-28 -18 -30 -18 -66 3
-36 20 -37 20 -73 1 -38 -20 -77 -26 -77 -12 0 4 -15 24 -33 45 -38 41 -57 41
-117 0 -53 -36 -63 -33 -117 31 -30 34 -52 33 -91 -5z"/>
</g>
</svg>
