<?xml version="1.0" standalone="no"?>
<!DOCTYPE svg PUBLIC "-//W3C//DTD SVG 20010904//EN"
 "http://www.w3.org/TR/2001/REC-SVG-20010904/DTD/svg10.dtd">
<svg version="1.0" xmlns="http://www.w3.org/2000/svg"
 width="575.000000pt" height="570.000000pt" viewBox="0 0 575.000000 570.000000"
 preserveAspectRatio="xMidYMid meet">

<g transform="translate(0.000000,570.000000) scale(0.100000,-0.100000)"
fill="#000000" stroke="none">
<path d="M3785 5641 c-100 -45 -147 -121 -153 -243 l-4 -78 -213 0 c-200 0
-214 -1 -239 -21 -17 -14 -26 -30 -26 -50 l0 -29 -260 0 -260 0 -54 30 c-176
99 -395 21 -466 -166 -30 -81 -25 -186 14 -262 15 -30 29 -52 32 -49 2 2 -7
27 -21 56 -38 75 -44 168 -15 246 29 78 114 164 185 188 145 50 308 -12 380
-144 22 -42 29 -70 33 -129 5 -97 -20 -167 -84 -234 -58 -61 -118 -87 -219
-96 l-80 -7 78 -2 c59 -1 77 -4 77 -15 0 -10 -30 -21 -97 -36 -91 -21 -97 -21
-109 -5 -26 35 12 95 59 95 11 0 18 3 14 6 -10 10 -51 -4 -75 -26 -28 -26 -29
-74 -2 -93 18 -12 32 -11 117 9 52 13 98 25 100 28 2 2 5 13 6 25 1 14 12 24
33 31 18 6 49 24 70 41 20 16 40 29 43 29 17 0 43 -68 71 -182 38 -157 38
-182 3 -217 -24 -23 -60 -34 -262 -80 -232 -53 -235 -53 -267 -36 -39 21 -46
37 -79 177 -40 171 -31 245 37 316 18 17 27 32 22 32 -27 0 -81 -84 -94 -148
-9 -41 -7 -67 15 -168 14 -65 32 -137 40 -159 16 -44 57 -75 99 -75 l26 0 0
-298 0 -298 -36 -35 c-55 -53 -90 -115 -124 -222 -23 -72 -35 -96 -43 -88 -20
20 -33 11 -57 -39 -20 -43 -26 -49 -47 -44 -13 4 -23 2 -23 -5 0 -6 -18 -23
-40 -37 -55 -37 -88 -28 -175 46 -102 87 -177 136 -251 160 l-64 22 0 43 c0
38 4 46 28 57 39 19 41 76 7 161 l-26 65 22 37 c21 35 21 39 6 70 -28 60 -143
101 -211 76 -24 -10 -24 -9 -19 24 7 42 -10 65 -47 65 -33 0 -80 -35 -80 -59
0 -19 40 -61 58 -61 21 0 13 -15 -36 -68 -28 -32 -60 -56 -80 -62 -37 -10 -40
-8 -168 116 -108 104 -175 154 -208 154 -74 0 -161 -94 -185 -200 -17 -76 20
-126 98 -132 l31 -2 -24 -26 c-51 -54 -71 -109 -70 -195 0 -118 43 -187 137
-220 l28 -10 -53 -44 c-112 -91 -143 -173 -135 -355 3 -67 12 -143 19 -171 13
-47 15 -50 44 -48 30 3 32 0 58 -67 15 -38 32 -72 37 -76 5 -3 38 17 73 45
l64 51 50 -62 50 -63 -14 -65 c-17 -83 -17 -90 2 -90 11 0 14 -5 9 -18 -3 -9
-15 -53 -26 -97 -21 -90 -25 -150 -8 -139 8 4 9 -11 3 -52 -13 -109 -7 -102
-134 -139 -189 -55 -413 -141 -573 -222 -89 -44 -93 -56 -73 -193 14 -93 14
-110 1 -153 -12 -40 -13 -67 -5 -143 18 -173 46 -203 242 -264 73 -22 147 -45
164 -50 17 -6 45 -10 62 -10 21 0 35 -7 42 -19 34 -65 131 -153 226 -206 l52
-29 -6 -79 c-4 -64 -9 -84 -28 -104 -25 -27 -78 -154 -89 -213 -5 -29 -2 -39
15 -55 28 -25 177 -26 216 0 l25 16 -7 132 c-4 73 -10 137 -14 142 -3 6 -2 38
4 73 l11 63 75 4 c170 9 314 89 416 229 l21 29 43 -122 c23 -66 48 -121 54
-121 25 0 37 -20 56 -88 24 -87 25 -129 4 -172 -9 -18 -19 -64 -22 -103 -7
-99 -12 -97 232 -96 243 0 280 5 284 38 5 34 -67 98 -168 148 -47 23 -92 44
-101 46 -40 13 -109 218 -79 237 11 7 11 24 1 112 -7 56 -15 111 -17 121 -5
16 38 17 810 17 l814 0 7 -33 c3 -17 20 -89 36 -159 25 -102 34 -127 50 -131
10 -3 19 -12 19 -21 0 -9 -6 -13 -14 -10 -9 4 -46 -23 -94 -69 -44 -41 -100
-91 -125 -112 -51 -42 -83 -94 -74 -118 10 -27 69 -50 127 -50 64 0 316 67
343 90 9 9 17 30 17 46 0 45 -21 161 -31 172 -16 17 -10 53 11 60 19 6 20 15
20 171 l0 164 133 0 134 0 12 -127 c6 -71 11 -140 11 -155 0 -15 7 -31 15 -35
16 -9 12 -82 -15 -288 -12 -93 -1 -110 76 -120 71 -9 170 3 189 22 8 8 15 21
15 30 0 48 -80 257 -111 288 -5 5 -9 22 -9 37 0 23 4 28 24 28 26 0 27 2 42
162 l6 67 37 -34 c163 -150 362 -191 566 -114 92 34 215 139 263 224 4 8 25
16 47 18 82 10 378 108 431 143 95 62 154 190 162 351 4 84 0 130 -23 252
l-27 150 16 134 c23 190 23 189 -22 209 -20 10 -49 22 -64 28 l-28 9 -2 1528
c-3 1505 -3 1529 -23 1568 -38 75 -36 75 -497 75 -225 0 -407 3 -406 8 1 4 -1
21 -4 38 -11 49 -35 54 -272 54 l-213 0 -1 70 c-3 120 -51 201 -147 246 -62
30 -152 32 -210 5z m200 -15 c60 -28 97 -66 124 -126 19 -41 21 -65 21 -269 0
-195 -2 -227 -17 -243 -15 -16 -35 -18 -229 -18 -209 0 -213 0 -228 22 -22 31
-23 411 -2 481 43 143 199 215 331 153z m-362 -326 c4 0 7 -67 7 -149 0 -208
-21 -193 255 -191 198 0 222 2 238 19 22 21 24 42 26 199 l1 122 225 0 c212 0
225 -1 235 -19 6 -12 10 -93 10 -195 0 -145 -3 -177 -16 -190 -14 -14 -92 -16
-714 -16 l-699 0 -15 22 c-13 18 -16 54 -16 188 0 178 7 205 53 212 16 2 243
1 410 -2z m-485 -100 c9 0 12 -36 12 -148 0 -139 1 -150 21 -168 20 -18 47
-19 720 -19 l698 0 23 23 c22 21 23 32 25 165 2 78 3 144 3 147 0 3 161 4 357
3 330 -3 360 -4 383 -21 58 -44 55 57 58 -1579 1 -827 0 -1503 -2 -1503 -3 0
-91 33 -198 74 -488 186 -679 242 -1023 300 -127 22 -130 23 -133 49 -2 19 1
27 12 27 32 0 66 116 66 227 0 48 2 53 22 53 20 0 21 3 15 93 -4 50 -10 102
-13 115 l-6 22 228 0 c250 0 264 3 264 60 0 52 -12 55 -284 57 -166 2 -252 6
-254 13 -2 6 -18 30 -36 53 -52 68 -160 112 -331 136 -52 8 -75 16 -87 32 -22
26 -23 59 -3 59 17 0 35 30 35 59 0 12 7 21 15 21 18 0 37 34 29 53 -3 9 2 42
11 75 16 57 16 62 -1 91 -19 33 -42 44 -121 60 -28 6 -70 20 -92 32 -71 37
-161 1 -161 -64 0 -35 32 -94 55 -103 13 -5 12 -11 -6 -41 -17 -27 -19 -39
-11 -56 6 -12 13 -37 16 -56 7 -41 32 -71 58 -71 27 0 23 -37 -9 -69 -18 -17
-48 -32 -83 -39 -90 -21 -151 -59 -182 -117 -15 -28 -29 -54 -30 -58 -2 -4
-78 -9 -170 -10 -147 -2 -168 -4 -187 -21 -26 -24 -27 -50 -1 -76 18 -18 33
-20 165 -20 119 0 145 -3 145 -14 0 -19 -29 -48 -41 -40 -19 12 -21 -30 -3
-88 l18 -60 -41 -38 c-28 -26 -62 -45 -108 -59 -95 -30 -136 -27 -187 9 -48
35 -98 41 -98 11 0 -11 5 -23 10 -26 28 -17 -9 -27 -89 -24 -82 4 -86 3 -89
-18 -2 -12 9 -35 28 -56 43 -49 100 -60 239 -47 58 5 160 14 226 20 66 6 134
13 150 16 29 5 31 3 52 -58 14 -40 18 -65 12 -69 -6 -3 -50 -9 -97 -13 -194
-15 -562 -90 -784 -160 l-78 -24 0 242 0 243 40 28 c46 32 48 40 19 56 -21 11
-20 12 20 53 22 23 41 44 41 47 0 4 -27 27 -60 53 l-60 47 0 164 0 164 49 21
c72 32 152 126 138 164 -10 26 -33 19 -91 -29 -58 -47 -94 -59 -81 -27 17 39
17 52 1 58 -14 5 -16 39 -16 305 0 247 2 299 14 299 7 0 27 3 43 6 28 6 29 5
41 -55 11 -54 17 -64 52 -87 51 -34 63 -88 30 -134 -33 -47 -14 -120 31 -120
12 0 23 -10 29 -25 10 -26 4 -55 -11 -55 -17 0 -26 -35 -17 -68 6 -23 19 -37
43 -49 26 -12 36 -25 44 -56 9 -36 7 -46 -13 -80 -20 -33 -22 -44 -13 -78 11
-45 20 -51 95 -69 l52 -12 43 38 c23 21 46 44 50 51 5 8 -31 183 -89 434 -106
458 -104 432 -33 443 45 7 94 46 103 81 9 35 -48 279 -79 339 -23 44 -24 51
-11 65 9 9 25 39 37 66 43 97 25 238 -41 322 -11 14 -20 28 -20 32 0 3 107 5
237 3 131 -1 244 -2 251 -2z m-546 -970 c4 -19 46 -200 93 -401 47 -201 85
-377 85 -391 0 -29 -67 -88 -101 -88 -46 0 -101 24 -110 48 -14 36 -10 65 11
92 23 29 24 41 9 92 -7 27 -19 43 -42 54 -18 9 -35 22 -39 28 -14 21 -8 55 12
66 38 20 22 96 -23 108 -45 12 -55 55 -22 102 22 31 23 39 14 77 -8 31 -21 48
-49 67 -33 21 -40 34 -51 81 -7 30 -10 57 -8 59 9 8 175 45 194 43 13 -1 22
-13 27 -37z m964 -506 c4 -15 18 -27 40 -34 29 -10 33 -14 23 -31 -12 -24 -5
-37 27 -49 27 -11 32 -41 9 -60 -31 -26 -10 -140 32 -167 23 -15 24 -18 8 -29
-37 -27 -164 -30 -204 -5 -12 8 -9 15 12 41 15 17 27 42 27 55 0 14 7 26 18
29 20 7 71 56 58 56 -5 0 -21 -11 -38 -25 -53 -45 -101 -24 -112 50 -4 24 -11
47 -16 50 -10 6 56 142 73 148 20 7 37 -4 43 -29z m-2140 -89 c14 -31 27 -77
27 -102 2 -40 -1 -49 -22 -59 -28 -15 -75 -3 -106 26 -12 11 -31 20 -43 20
-27 0 -39 25 -22 45 7 8 9 26 6 42 -3 15 -3 33 2 39 6 8 92 38 125 43 4 0 20
-24 33 -54z m859 -74 c-16 -33 -12 -41 24 -41 16 0 42 15 70 40 40 37 81 53
81 32 0 -12 -52 -83 -76 -104 -10 -9 -49 -30 -86 -47 -36 -16 -71 -39 -77 -50
-6 -11 -11 -70 -11 -131 l0 -111 -27 20 c-16 11 -43 32 -61 48 l-33 28 35 103
c37 109 56 143 119 209 44 46 65 48 42 4z m-909 -107 c25 -6 25 -8 19 -69 l-7
-63 46 -17 c25 -10 46 -21 46 -25 0 -11 -53 -28 -109 -36 -53 -7 -150 10 -196
34 l-30 15 51 23 52 23 22 85 23 85 29 -24 c16 -14 41 -28 54 -31z m894 -194
c0 -82 -3 -150 -7 -150 -5 0 -17 7 -27 15 -17 13 -19 25 -13 135 5 113 14 150
38 150 5 0 9 -67 9 -150z m-1096 60 l-59 -28 60 -28 c52 -25 71 -29 150 -29
86 0 185 24 185 44 0 4 -25 18 -55 30 -70 29 -71 45 -2 25 67 -20 138 -59 191
-104 113 -100 157 -130 187 -130 35 0 108 35 116 56 4 12 12 9 42 -13 31 -23
337 -259 351 -270 21 -17 -219 -145 -306 -163 -84 -18 -206 -8 -279 21 l-60
24 -10 115 c-6 63 -13 109 -15 102 -5 -12 7 -208 29 -467 14 -160 8 -209 -30
-238 -25 -18 -35 -19 -255 -8 -283 14 -492 16 -523 6 -24 -7 -24 -6 -18 44 8
69 12 74 50 51 42 -26 51 -25 122 10 35 17 76 30 98 30 21 0 51 7 66 15 74 38
33 101 -74 112 -45 5 -61 2 -100 -21 -26 -14 -50 -24 -54 -22 -3 3 -14 20 -25
40 -18 35 -18 36 5 123 19 70 24 112 24 205 -1 65 -4 120 -8 124 -11 11 -66
-17 -92 -48 -29 -34 -31 -68 -10 -128 8 -24 14 -44 13 -46 -15 -14 -355 -170
-360 -165 -17 15 -40 199 -35 276 9 137 44 207 142 282 77 58 148 93 265 132
105 35 310 81 324 73 5 -3 -18 -17 -50 -32z m1042 -195 c87 -69 160 -129 162
-133 1 -4 -14 -23 -33 -42 -26 -25 -39 -32 -50 -25 -20 14 -234 180 -270 209
l-30 24 22 46 c13 25 26 46 31 46 4 0 80 -56 168 -125z m974 20 c0 -8 -5 -25
-11 -39 -12 -25 -13 -25 -156 -28 -80 -2 -151 1 -159 5 -17 10 -18 49 -2 65 8
8 60 12 170 12 132 0 158 -2 158 -15z m1468 3 c7 -7 12 -20 12 -29 0 -37 -22
-41 -247 -40 -120 0 -223 0 -229 0 -7 1 -15 12 -18 25 -3 13 -9 31 -12 40 -6
14 19 16 238 16 176 0 247 -3 256 -12z m-1241 -165 l82 -6 24 -72 c20 -57 23
-82 17 -115 -4 -23 -13 -46 -19 -49 -6 -4 -35 -4 -64 0 -86 12 -97 11 -106
-13 -22 -59 49 -108 191 -133 45 -8 85 -18 89 -22 4 -5 11 -21 15 -37 l7 -29
-194 7 c-107 5 -194 9 -195 9 -4 7 -154 456 -154 461 0 8 202 8 307 -1z
m-2444 -84 c9 -65 3 -125 -25 -242 -19 -84 -21 -87 -35 -67 -13 18 -13 26 -3
45 11 20 10 28 -8 57 -15 25 -17 37 -9 49 8 12 6 31 -7 72 -10 31 -15 65 -11
76 8 25 64 73 79 68 6 -2 14 -28 19 -58z m3187 -83 c0 -62 -21 -199 -35 -226
-12 -24 -22 -28 -72 -33 -66 -5 -280 15 -461 44 -143 22 -218 54 -228 95 -8
31 10 47 44 39 63 -15 113 -17 127 -5 8 7 15 28 15 48 0 34 1 34 19 18 10 -9
26 -34 36 -56 25 -55 48 -61 209 -58 111 2 140 6 147 18 4 8 11 46 14 83 l7
68 89 -2 89 -2 0 -31z m-988 -64 c19 -55 23 -79 15 -84 -26 -16 -356 -48 -495
-48 -77 0 -142 40 -142 88 0 21 3 23 30 17 38 -8 137 -8 150 0 8 5 6 14 -4 31
-20 30 -20 34 2 34 10 0 41 -16 68 -35 44 -32 54 -35 94 -30 77 10 166 44 206
79 22 19 41 32 44 29 2 -2 17 -39 32 -81z m-904 -198 l-3 -236 -125 -47 c-165
-63 -233 -92 -362 -157 -59 -30 -109 -54 -111 -54 -3 0 -7 38 -11 85 l-7 84
32 29 c30 26 33 36 37 96 4 62 -12 296 -25 360 -5 25 -3 28 13 21 86 -36 136
-47 214 -48 98 0 172 18 269 68 37 19 69 34 74 35 4 0 6 -106 5 -236z m-1378
130 l20 -31 -125 -99 c-68 -54 -128 -100 -133 -102 -5 -1 -19 21 -30 50 -38
98 -46 86 101 155 73 35 136 61 140 60 4 -1 17 -16 27 -33z m43 -150 l49 -75
26 17 c77 50 112 55 180 24 29 -13 42 -25 42 -39 0 -27 -47 -51 -98 -51 -22 0
-59 -11 -86 -25 -88 -47 -106 -39 -209 93 l-47 60 42 36 c24 20 45 36 48 36 3
0 27 -34 53 -76z m2327 -62 l0 -29 -140 -13 c-77 -7 -168 -19 -202 -26 -70
-15 -60 -14 152 11 69 8 140 15 158 15 l32 0 0 -117 c0 -65 5 -181 10 -257 6
-77 9 -140 8 -142 -4 -3 -183 -12 -393 -19 -93 -3 -276 -10 -405 -15 -129 -5
-266 -10 -305 -10 l-70 0 0 65 c0 77 -19 103 -83 112 -79 11 -107 -2 -169 -75
-81 -95 -115 -120 -161 -118 -30 1 -37 5 -37 21 0 41 349 242 580 333 55 22
118 46 140 55 22 9 34 16 26 16 -21 1 -278 -102 -372 -149 -108 -55 -260 -143
-323 -187 -60 -43 -73 -35 -60 39 l9 53 161 80 c191 95 410 180 619 240 246
71 623 141 773 144 51 1 52 0 52 -27z m1000 -17 c204 -36 452 -100 615 -157
97 -34 769 -289 785 -298 11 -6 5 -14 -25 -31 -66 -39 -298 -196 -333 -226
-35 -29 -36 -54 -4 -69 9 -4 94 -9 188 -12 l170 -4 23 -116 c29 -147 36 -289
19 -362 l-13 -55 -95 -12 c-187 -23 -363 -43 -365 -41 -1 2 -11 43 -23 91 -50
208 -196 368 -397 434 -109 36 -257 38 -360 6 -82 -26 -175 -79 -235 -134 -24
-22 -44 -38 -45 -37 -1 2 -12 95 -24 208 -12 113 -24 221 -27 241 -7 45 -19
42 246 69 328 33 406 50 563 122 104 48 96 58 -98 130 -196 72 -388 128 -560
163 -179 37 -165 30 -165 76 0 21 4 39 8 39 4 0 73 -11 152 -25z m-696 -188
c87 -79 208 -138 319 -153 26 -4 47 -11 47 -16 0 -24 -207 40 -279 86 -27 17
-65 45 -84 63 -42 36 -107 120 -107 135 0 6 14 -9 31 -33 17 -24 50 -61 73
-82z m682 89 c66 -14 169 -38 229 -55 183 -50 497 -161 502 -178 2 -6 -24 -22
-57 -37 -158 -71 -244 -90 -545 -120 -254 -26 -233 -27 -239 14 -3 19 -10 105
-16 190 -6 85 -13 167 -15 183 -6 33 -8 33 141 3z m-3003 -103 c134 -5 157 -8
157 -22 0 -30 -53 -169 -75 -197 -30 -38 -53 -29 -150 57 -158 141 -188 143
-283 14 l-45 -60 7 45 c12 83 38 159 55 163 26 7 165 7 334 0z m232 -63 c16
-47 87 -163 130 -210 20 -22 26 -55 54 -260 29 -223 35 -283 62 -600 6 -74 24
-236 39 -360 16 -123 28 -226 26 -227 -14 -14 -190 -23 -202 -11 -14 16 -257
741 -314 940 l-28 97 29 116 c17 65 28 120 25 123 -7 6 -4 18 -80 -278 -106
-413 -153 -642 -176 -865 -7 -60 -14 -112 -17 -115 -8 -8 -191 -5 -200 3 -13
14 -16 811 -4 1011 12 183 32 367 52 463 12 61 74 148 117 164 37 14 69 -3
167 -91 88 -79 130 -103 156 -89 26 14 55 67 83 152 14 43 28 82 31 87 12 19
35 -4 50 -50z m159 34 c9 -24 7 -217 -3 -232 -16 -27 -151 178 -151 231 0 15
10 17 74 17 58 0 75 -3 80 -16z m442 -218 c21 -33 23 -111 3 -131 -11 -12 -44
-16 -137 -19 -68 -2 -135 -1 -149 3 -26 7 -26 8 -7 22 10 8 45 44 77 82 l59
67 69 0 c62 0 70 -2 85 -24z m3604 -68 c0 -18 -3 -50 -6 -71 -6 -32 -8 -35
-19 -21 -27 38 -122 1 -261 -102 -73 -53 -97 -63 -109 -44 -10 16 354 270 387
270 4 0 8 -15 8 -32z m-1619 -4 l35 -6 33 -301 c18 -166 42 -371 52 -456 11
-90 19 -218 19 -305 0 -171 -17 -388 -30 -396 -12 -8 -159 -5 -166 3 -4 4 -17
121 -30 262 -26 281 -29 297 -85 436 -21 53 -56 163 -78 245 -42 158 -107 353
-122 369 -5 5 -10 -209 -11 -546 -1 -479 -2 -611 -7 -762 l-1 -29 -89 4 c-49
1 -92 6 -96 9 -11 12 -75 313 -95 449 -10 74 -22 209 -25 300 -8 229 -25 570
-30 601 l-4 26 107 6 c77 4 127 12 179 30 146 51 341 78 444 61z m-771 -70 c0
-15 6 -24 15 -24 8 0 15 -4 15 -9 0 -10 -28 -23 -38 -17 -4 2 -72 0 -152 -4
-119 -6 -152 -11 -187 -28 -81 -42 -69 -44 164 -37 l220 8 7 -134 c9 -159 25
-623 23 -626 -9 -8 -1607 -40 -1607 -32 0 3 -4 40 -10 84 -5 44 -14 149 -20
233 -6 84 -22 239 -35 345 -14 105 -25 198 -25 205 0 9 42 12 178 12 98 0 213
4 257 9 44 6 179 13 300 17 121 3 364 12 540 18 176 6 328 10 338 8 10 -3 17
-14 17 -28z m-2464 -61 c-2 -10 -8 -62 -12 -116 l-6 -97 -57 -30 c-117 -63
-210 -159 -265 -275 -43 -89 -58 -154 -60 -258 l-1 -82 -35 3 c-101 9 -295 33
-299 37 -19 19 -25 198 -10 257 9 34 9 65 -4 148 -17 121 -12 141 43 171 122
66 332 149 540 215 155 49 174 52 166 27z m2494 -18 c0 -8 -3 -16 -7 -16 -31
-5 -338 -13 -373 -9 -9 1 -5 6 10 12 34 16 124 25 258 26 94 2 112 0 112 -13z
m444 -250 c19 -60 39 -135 45 -166 6 -30 25 -91 42 -135 63 -163 84 -223 79
-227 -3 -3 -58 -8 -122 -12 l-118 -7 0 379 1 378 20 -50 c11 -27 35 -99 53
-160z m1036 50 c144 -47 281 -166 343 -296 47 -98 71 -220 63 -311 -8 -79 -33
-170 -50 -180 -10 -7 -56 -11 -56 -5 0 1 10 30 21 62 96 272 -58 581 -336 673
-197 65 -399 16 -548 -134 l-67 -68 0 42 c0 44 10 58 92 125 75 62 203 111
313 120 57 4 170 -10 225 -28z m-3995 -47 c-4 -18 -8 -33 -9 -34 -144 -78
-238 -190 -280 -333 -25 -84 -21 -230 8 -314 l23 -68 -31 3 c-26 3 -33 10 -50
53 -31 77 -29 276 2 367 46 132 155 264 271 327 31 17 60 31 64 31 5 0 5 -15
2 -32z m3942 -190 c75 -28 153 -102 188 -180 41 -90 41 -196 0 -286 -36 -80
-112 -152 -193 -182 -78 -30 -205 -26 -275 8 -66 33 -134 102 -165 170 -23 49
-27 70 -27 152 0 85 3 101 28 149 88 166 267 234 444 169z m-3488 -64 c59 -53
85 -97 107 -185 19 -74 7 -164 -31 -239 -32 -62 -113 -134 -181 -159 -75 -28
-94 -27 -94 4 0 14 6 27 13 29 149 43 232 134 244 267 9 90 -19 161 -88 231
-42 43 -56 63 -52 78 8 30 26 25 82 -26z m-465 -25 c-8 -13 -6 -343 3 -366 5
-16 4 -16 -9 -3 -38 38 -50 154 -23 230 8 24 13 45 11 47 -8 8 -24 -31 -35
-88 -14 -66 -1 -138 35 -207 13 -25 24 -61 24 -81 l-1 -36 -30 35 c-17 19 -43
58 -57 85 -24 45 -27 61 -27 150 0 85 3 107 23 144 32 61 72 112 83 105 5 -3
7 -10 3 -15z m428 -36 c58 -60 81 -114 81 -191 1 -116 -57 -210 -158 -258 -85
-40 -85 -40 -64 81 30 180 83 405 94 405 6 0 27 -17 47 -37z m4443 -135 c-24
-79 -86 -146 -170 -183 -66 -30 -269 -95 -294 -95 -19 0 -19 2 -5 43 8 23 18
78 21 122 l6 81 211 26 c116 14 217 26 224 27 9 1 11 -6 7 -21z m-1739 -106
c7 -4 16 -49 21 -99 l9 -93 -133 0 -133 0 0 95 0 94 108 4 c59 1 109 4 112 5
3 1 10 -2 16 -6z m-3499 -56 c7 -6 35 -118 31 -122 -6 -5 -250 71 -285 89 -28
15 -63 52 -63 67 0 6 311 -27 317 -34z m2947 -8 c4 -29 10 -70 13 -90 l6 -38
-811 0 -811 0 -6 48 c-3 26 -9 59 -11 75 -5 26 -4 27 43 28 26 0 62 2 78 3 17
2 242 6 500 11 259 4 471 8 473 10 1 1 119 3 261 4 l258 2 7 -53z m-2414 -413
c0 -8 -5 -48 -11 -90 -10 -63 -13 -73 -24 -59 -9 13 -20 15 -43 11 -29 -6 -31
-4 -28 16 3 12 5 48 5 80 l1 57 50 0 c37 0 50 -4 50 -15z m810 -37 c19 -74 33
-112 52 -146 24 -42 24 -42 -16 -42 -21 0 -36 -6 -40 -15 -6 -18 -26 -19 -58
-5 -19 9 -26 26 -42 103 -10 51 -21 102 -23 114 -5 20 -1 22 48 26 30 2 57 4
61 5 4 1 12 -17 18 -40z m2360 -30 c0 -7 -3 -23 -6 -36 -5 -18 -9 -20 -21 -11
-7 7 -27 12 -43 11 -25 -1 -30 3 -30 24 0 22 4 24 50 24 33 0 50 -4 50 -12z
m-519 -8 c25 0 29 -4 29 -28 0 -21 -7 -32 -25 -40 -38 -18 -49 -15 -73 18 -33
44 -29 64 9 56 17 -3 44 -6 60 -6z m-72 -67 l30 -37 36 17 c20 10 40 15 45 12
4 -2 11 -31 14 -62 4 -32 9 -69 11 -83 3 -14 1 -31 -4 -38 -12 -19 -285 -92
-345 -92 -57 0 -116 29 -116 56 0 10 32 47 71 83 40 36 99 92 133 123 33 32
69 58 78 58 9 0 30 -17 47 -37z m561 12 c7 -9 21 -13 31 -10 13 5 23 -6 42
-47 37 -77 78 -212 72 -231 -9 -21 -37 -27 -141 -27 -119 0 -120 1 -105 124 6
52 11 115 11 140 0 36 3 44 15 40 9 -4 15 0 15 10 0 21 43 21 60 1z m-3176
-41 c3 -7 12 -11 21 -8 13 5 15 -6 15 -77 0 -46 3 -100 5 -119 9 -55 -4 -64
-95 -68 -91 -5 -125 1 -134 23 -6 16 35 148 66 208 13 26 24 37 34 33 8 -3 23
3 34 14 21 21 45 18 54 -6z m1045 -110 c113 -62 177 -122 154 -145 -5 -5 -110
-10 -242 -10 -243 -2 -251 0 -251 41 0 34 20 134 29 143 6 6 26 3 54 -8 44
-17 45 -17 67 5 32 32 101 22 189 -26z"/>
<path d="M3814 5486 c-39 -39 -44 -77 -18 -127 18 -36 74 -63 114 -54 34 7 75
51 84 87 9 39 -17 94 -53 112 -50 26 -88 21 -127 -18z m111 10 c39 -17 55 -42
55 -89 0 -77 -96 -116 -157 -63 -50 43 -32 130 32 157 28 11 31 11 70 -5z"/>
<path d="M2886 4650 c-49 -15 -61 -55 -26 -90 19 -19 33 -20 353 -20 285 0
336 2 355 16 25 17 29 51 8 80 -14 18 -30 19 -338 21 -178 1 -336 -2 -352 -7z
m686 -35 c24 -54 14 -55 -343 -55 -178 0 -332 0 -341 0 -25 0 -41 35 -28 60
10 19 21 20 356 20 l344 0 12 -25z"/>
<path d="M3794 4640 c-53 -21 -54 -28 -54 -391 0 -317 1 -338 19 -360 l19 -24
674 -3 c488 -2 679 1 694 9 12 6 27 22 33 36 15 32 15 666 1 694 -27 49 -23
49 -717 48 -356 0 -658 -4 -669 -9z m1362 -31 c18 -20 19 -43 22 -342 3 -344
0 -371 -45 -388 -14 -5 -303 -9 -669 -9 -696 0 -694 0 -708 52 -3 13 -6 165
-6 339 0 305 1 317 21 343 l20 26 673 0 c671 0 673 0 692 -21z"/>
<path d="M4180 4490 c-89 -6 -127 -21 -220 -83 -86 -57 -110 -86 -110 -133 0
-24 -4 -46 -10 -49 -5 -3 -10 -26 -10 -50 0 -38 4 -46 28 -58 15 -8 40 -17 55
-21 16 -4 42 -22 59 -41 26 -30 36 -35 74 -35 36 0 48 6 77 35 l34 35 287 0
287 0 33 -35 c45 -47 99 -49 149 -5 31 27 42 30 99 30 36 0 69 5 76 12 7 7 12
37 12 67 0 108 -46 144 -224 180 -71 15 -119 32 -179 64 -139 74 -186 88 -317
91 -63 1 -153 -1 -200 -4z m475 -82 c101 -48 163 -71 225 -83 113 -22 165 -46
190 -87 26 -43 26 -78 1 -78 -20 0 -51 -25 -51 -41 0 -5 14 -9 31 -9 17 0 28
-4 24 -10 -3 -5 -28 -10 -56 -10 -48 0 -49 1 -49 30 0 99 -112 162 -196 111
-30 -18 -64 -74 -64 -105 0 -14 -29 -16 -263 -16 l-262 0 -18 51 c-24 66 -63
92 -130 86 -61 -5 -105 -44 -113 -99 -4 -21 -8 -38 -11 -38 -2 0 -19 7 -38 14
-31 13 -35 19 -35 50 0 28 6 39 28 53 57 37 72 83 26 83 -22 0 -25 2 -14 15 7
8 29 15 50 15 29 0 48 9 82 37 24 20 42 44 41 53 -2 17 23 32 72 44 11 2 103
4 205 3 l185 -2 140 -67z m-559 -184 c39 -19 67 -64 61 -97 -4 -18 -4 -18 -6
5 -1 37 -38 76 -86 93 -22 8 -32 14 -22 15 11 0 34 -7 53 -16z m757 9 c-7 -2
-19 -2 -25 0 -7 3 -2 5 12 5 14 0 19 -2 13 -5z m-855 -19 c-29 -15 -58 -61
-58 -90 0 -10 -3 -15 -6 -11 -20 20 43 117 74 117 11 -1 8 -6 -10 -16z m778
-15 c-23 -19 -36 -41 -39 -62 l-4 -32 -1 33 c-2 25 5 41 27 63 16 16 34 29 41
29 6 0 -5 -14 -24 -31z m133 15 c25 -18 52 -72 50 -101 0 -10 -6 -2 -12 17
-16 46 -27 63 -57 83 -13 9 -20 17 -14 17 5 0 20 -7 33 -16z m-830 -29 c70
-36 45 -135 -34 -135 -73 0 -96 107 -31 138 29 14 33 14 65 -3z m810 -8 c25
-21 32 -56 16 -87 -28 -53 -110 -51 -129 3 -26 73 53 132 113 84z"/>
<path d="M4178 4443 c-15 -2 -46 -22 -70 -43 -58 -53 -45 -60 115 -60 l128 0
-3 53 -3 52 -70 1 c-38 1 -82 -1 -97 -3z"/>
<path d="M4380 4433 c0 -33 20 -91 33 -96 22 -8 267 -8 267 0 0 29 -156 97
-242 107 -51 5 -58 4 -58 -11z"/>
<path d="M4926 4268 c20 -36 39 -48 76 -48 59 0 48 30 -17 47 -63 16 -68 16
-59 1z"/>
<path d="M2857 4422 c-22 -24 -21 -55 1 -75 17 -15 56 -17 359 -17 317 0 341
1 356 18 22 24 21 55 -1 75 -17 15 -56 17 -359 17 -317 0 -341 -1 -356 -18z
m707 -8 c9 -8 16 -22 16 -29 0 -7 -7 -21 -16 -29 -13 -14 -59 -16 -346 -16
-294 0 -333 2 -350 17 -22 20 -23 31 -1 55 15 17 39 18 349 18 289 0 335 -2
348 -16z"/>
<path d="M2860 4210 c-26 -26 -25 -52 1 -76 19 -17 38 -19 215 -18 210 1 224
4 224 55 0 53 -23 59 -232 59 -175 0 -189 -1 -208 -20z m415 -10 c8 -7 15 -20
15 -29 0 -38 -18 -41 -222 -41 -187 0 -198 1 -208 20 -14 26 2 57 32 63 53 10
368 0 383 -13z"/>
<path d="M2853 3660 c-42 -17 -38 -76 7 -100 25 -13 490 -14 490 0 0 6 -86 10
-239 10 -132 0 -246 3 -255 6 -17 6 -23 59 -8 68 5 3 113 6 240 7 128 1 235 6
238 10 7 12 -444 10 -473 -1z"/>
<path d="M3845 3660 c3 -6 155 -9 396 -9 404 1 419 -1 419 -40 0 -40 -10 -41
-422 -41 -259 0 -398 -4 -398 -10 0 -6 138 -10 393 -10 433 0 437 1 437 60 0
60 -4 60 -438 60 -250 0 -391 -4 -387 -10z"/>
<path d="M4900 3663 c-46 -18 -50 -31 -50 -163 0 -169 1 -171 133 -178 114 -5
161 2 188 29 17 17 19 34 19 143 0 171 1 170 -157 173 -65 1 -125 0 -133 -4z
m263 -35 c14 -17 17 -40 17 -132 0 -159 3 -156 -160 -156 -163 0 -160 -2 -160
153 0 113 8 143 41 155 10 4 69 6 131 4 99 -3 115 -6 131 -24z"/>
<path d="M5040 3509 c-22 -34 -42 -65 -45 -67 -3 -3 -14 15 -25 39 -14 29 -19
35 -15 17 8 -43 24 -78 34 -78 12 0 104 140 97 147 -3 3 -23 -23 -46 -58z"/>
<path d="M4217 3412 c-31 -34 -12 -91 31 -93 102 -5 398 3 409 12 19 16 16 63
-5 82 -16 15 -47 17 -219 17 -181 0 -201 -2 -216 -18z m411 2 c26 -8 39 -48
22 -69 -18 -22 -412 -22 -430 0 -16 19 -5 62 18 68 26 7 364 8 390 1z"/>
<path d="M4876 3159 c-26 -20 -26 -22 -26 -149 0 -172 -1 -170 145 -175 118
-4 169 6 185 35 6 10 10 73 10 140 0 115 -1 122 -25 145 -23 24 -30 25 -143
25 -106 0 -122 -2 -146 -21z m287 -22 c16 -18 18 -36 15 -140 -4 -151 0 -147
-160 -147 -158 0 -158 0 -158 151 0 114 8 145 40 157 10 4 70 6 132 4 101 -3
115 -5 131 -25z"/>
<path d="M5042 3020 c-24 -39 -47 -70 -52 -70 -5 0 -15 18 -21 40 -7 22 -16
40 -21 40 -11 0 -11 -2 12 -54 10 -25 24 -46 30 -46 12 0 102 138 98 151 -2 4
-22 -23 -46 -61z"/>
<path d="M4400 2920 c-24 -24 -25 -49 -6 -76 12 -16 29 -19 121 -22 123 -4
155 8 155 58 0 48 -29 60 -147 60 -90 0 -106 -3 -123 -20z m246 -11 c8 -6 14
-19 14 -28 0 -35 -21 -41 -137 -41 -102 0 -113 2 -123 20 -15 28 3 58 37 62
61 7 195 -1 209 -13z"/>
<path d="M4295 2693 c-32 -8 -45 -24 -45 -52 0 -55 5 -56 201 -59 160 -3 183
-1 200 14 10 9 19 29 19 44 0 49 -18 54 -194 57 -88 1 -170 -1 -181 -4z m353
-25 c19 -19 14 -46 -10 -62 -35 -21 -341 -22 -363 0 -18 18 -20 45 -3 62 17
17 359 17 376 0z"/>
<path d="M4876 2669 c-26 -20 -26 -22 -26 -150 0 -173 -4 -169 170 -169 174 0
170 -4 170 165 0 120 -1 127 -25 150 -23 24 -30 25 -143 25 -106 0 -122 -2
-146 -21z m280 -14 c25 -25 26 -29 22 -146 -4 -153 0 -149 -160 -149 -158 0
-158 0 -158 151 0 61 5 119 11 130 16 31 45 38 157 38 97 1 104 0 128 -24z"/>
<path d="M5038 2524 l-47 -77 -15 38 c-9 20 -16 41 -16 46 0 5 -4 9 -10 9 -13
0 -13 -1 10 -54 10 -25 25 -46 32 -46 7 0 25 21 40 48 15 26 37 62 49 80 11
17 17 32 12 32 -4 0 -29 -34 -55 -76z"/>
<path d="M2506 4181 c-9 -13 155 -715 168 -723 17 -12 26 -9 33 7 5 15 -138
656 -157 703 -10 22 -34 30 -44 13z"/>
<path d="M2785 2385 c-5 -2 -54 -13 -108 -25 -54 -12 -97 -24 -95 -26 3 -2 63
9 134 25 71 16 118 29 104 29 -14 0 -29 -1 -35 -3z"/>
<path d="M2475 2305 c-38 -12 -65 -23 -60 -24 6 0 44 10 85 23 41 14 68 25 60
25 -8 0 -46 -11 -85 -24z"/>
<path d="M3970 1889 c0 -19 67 -79 87 -78 12 0 8 5 -14 16 -18 9 -39 29 -45
45 -13 28 -28 38 -28 17z"/>
<path d="M4015 1060 l-40 -7 42 -2 c23 0 45 4 48 9 3 6 3 9 -2 9 -4 -1 -26 -5
-48 -9z"/>
<path d="M3410 995 c0 -3 23 -44 50 -92 53 -92 90 -180 90 -213 0 -11 5 -20
10 -20 24 0 -27 134 -94 249 -43 73 -56 91 -56 76z"/>
<path d="M395 1636 c-70 -18 -205 -76 -227 -98 -23 -23 -23 -30 1 -59 18 -23
26 -24 119 -23 84 1 109 6 155 27 59 27 207 131 207 146 0 23 -170 28 -255 7z
m228 -15 c-38 -34 -136 -103 -173 -122 -36 -18 -65 -24 -148 -27 -109 -5 -132
3 -132 40 0 16 4 18 18 12 24 -12 123 -9 168 6 22 7 71 34 109 59 64 42 76 46
119 43 26 -2 44 -7 39 -11z"/>
<path d="M187 1239 c-57 -9 -81 -37 -72 -86 3 -22 14 -53 24 -70 22 -34 83
-67 111 -58 33 11 79 169 60 206 -12 21 -39 23 -123 8z m56 -98 c-3 -92 -9
-107 -42 -96 -41 13 -76 85 -72 147 1 19 50 38 91 35 25 -2 25 -3 23 -86z"/>
<path d="M4515 1303 c-103 -37 -175 -121 -194 -226 -20 -112 31 -234 123 -294
231 -151 519 64 442 330 -43 149 -225 242 -371 190z m210 -27 c61 -28 130
-103 147 -160 38 -130 -10 -258 -127 -335 -36 -23 -49 -26 -135 -26 -110 0
-137 11 -205 81 -68 69 -93 177 -64 274 18 61 78 131 138 162 72 38 171 39
246 4z"/>
<path d="M3420 280 c19 -16 40 -29 45 -29 6 0 -6 13 -25 29 -19 17 -39 30 -44
30 -6 0 5 -13 24 -30z"/>
<path d="M3545 179 c-119 -39 -227 -51 -287 -33 -10 3 -18 1 -18 -5 0 -14 82
-24 138 -17 64 9 235 55 247 67 14 14 -12 10 -80 -12z"/>
<path d="M4050 210 c0 -5 20 -10 44 -10 25 0 48 5 51 10 4 6 -13 10 -44 10
-28 0 -51 -4 -51 -10z"/>
<path d="M4165 109 c-22 -4 -69 -6 -105 -3 -53 4 -61 2 -40 -7 31 -13 176 -7
192 9 13 13 10 13 -47 1z"/>
<path d="M813 193 c15 -2 39 -2 55 0 15 2 2 4 -28 4 -30 0 -43 -2 -27 -4z"/>
<path d="M760 109 c0 -10 77 -18 120 -12 66 9 45 18 -40 18 -44 0 -80 -3 -80
-6z"/>
<path d="M1830 235 c0 -8 92 -65 104 -65 5 0 -13 16 -40 35 -47 33 -64 41 -64
30z"/>
<path d="M1660 107 c0 -9 388 -8 394 1 2 4 -85 7 -195 7 -109 0 -199 -4 -199
-8z"/>
<path d="M2305 5207 c-98 -47 -163 -155 -153 -257 5 -46 45 -146 55 -136 3 3
-5 26 -18 52 -55 114 -5 264 106 321 l30 16 -22 -24 c-37 -40 -43 -74 -43
-228 0 -143 -1 -149 -22 -163 -17 -11 4 -9 72 8 135 34 178 38 224 21 22 -7
41 -18 43 -24 2 -6 -24 -25 -58 -42 -34 -17 -55 -31 -45 -31 25 0 92 36 125
69 43 42 63 88 69 157 9 113 -46 212 -143 259 -63 30 -159 31 -220 2z m246
-33 c93 -64 130 -178 93 -286 -23 -68 -40 -81 -89 -63 -62 22 -150 15 -267
-21 -17 -5 -18 6 -18 141 0 189 13 221 97 250 55 19 140 10 184 -21z"/>
<path d="M1370 4915 c7 -9 15 -13 17 -11 7 7 -7 26 -19 26 -6 0 -6 -6 2 -15z"/>
<path d="M1465 4919 c-11 -17 1 -21 15 -4 8 9 8 15 2 15 -6 0 -14 -5 -17 -11z"/>
<path d="M1370 4825 c-7 -9 -11 -18 -8 -20 3 -3 11 1 18 10 7 9 11 18 8 20 -3
3 -11 -1 -18 -10z"/>
<path d="M1465 4820 c3 -5 11 -10 16 -10 6 0 7 5 4 10 -3 6 -11 10 -16 10 -6
0 -7 -4 -4 -10z"/>
<path d="M972 4778 c-15 -15 -15 -51 0 -66 7 -7 25 -12 40 -12 36 0 56 36 39
69 -13 23 -59 29 -79 9z m63 -33 c0 -25 -4 -30 -24 -30 -32 0 -49 28 -31 50 7
9 23 15 34 13 16 -2 21 -10 21 -33z"/>
<path d="M2378 4703 c7 -3 16 -2 19 1 4 3 -2 6 -13 5 -11 0 -14 -3 -6 -6z"/>
<path d="M1852 4230 c0 -14 2 -19 5 -12 2 6 2 18 0 25 -3 6 -5 1 -5 -13z"/>
<path d="M1770 4159 c0 -5 10 -9 22 -9 12 0 18 3 14 7 -10 11 -36 12 -36 2z"/>
<path d="M1910 4160 c0 -5 7 -10 15 -10 8 0 15 5 15 10 0 6 -7 10 -15 10 -8 0
-15 -4 -15 -10z"/>
<path d="M1852 4090 c0 -14 2 -19 5 -12 2 6 2 18 0 25 -3 6 -5 1 -5 -13z"/>
</g>
</svg>
