<?xml version="1.0" standalone="no"?>
<!DOCTYPE svg PUBLIC "-//W3C//DTD SVG 20010904//EN"
 "http://www.w3.org/TR/2001/REC-SVG-20010904/DTD/svg10.dtd">
<svg version="1.0" xmlns="http://www.w3.org/2000/svg"
 width="596.000000pt" height="582.000000pt" viewBox="0 0 596.000000 582.000000"
 preserveAspectRatio="xMidYMid meet">

<g transform="translate(0.000000,582.000000) scale(0.100000,-0.100000)"
fill="#000000" stroke="none">
<path d="M3270 5721 c-120 -19 -300 -62 -354 -86 -47 -20 -9 -17 64 5 193 60
413 90 625 85 223 -5 356 -26 543 -87 50 -16 98 -28 105 -25 14 4 -115 48
-228 76 -217 54 -526 67 -755 32z"/>
<path d="M3325 5630 c-100 -12 -211 -33 -193 -38 10 -2 62 3 115 12 336 52
683 15 1007 -108 74 -28 85 -31 71 -17 -19 18 -207 82 -313 107 -59 14 -152
32 -207 39 -104 15 -373 18 -480 5z"/>
<path d="M4368 5448 c-19 -30 -24 -45 -15 -49 16 -9 117 -19 117 -13 0 15 -56
104 -65 104 -5 0 -22 -19 -37 -42z m61 -13 l20 -35 -27 0 c-15 0 -33 4 -41 9
-12 8 -12 13 3 35 9 14 18 26 20 26 2 0 13 -16 25 -35z"/>
<path d="M4902 5464 c-117 -70 -114 -254 6 -322 138 -78 305 59 263 216 -7 23
-16 42 -21 42 -6 0 -6 -10 0 -26 17 -43 12 -113 -11 -153 -64 -115 -224 -115
-288 0 -28 50 -27 122 2 173 38 67 132 103 201 76 14 -5 26 -6 26 -1 0 12 -37
21 -90 21 -31 0 -59 -8 -88 -26z"/>
<path d="M560 5431 c-177 -7 -203 -15 -248 -83 l-27 -42 -2 -1755 -3 -1755
-61 -22 c-91 -33 -112 -58 -117 -141 -3 -38 -11 -77 -18 -88 -9 -12 -14 -48
-14 -98 0 -78 0 -80 36 -112 35 -33 36 -34 30 -92 -4 -32 -9 -85 -12 -118 -3
-33 -12 -68 -20 -79 -9 -14 -14 -48 -14 -101 0 -74 2 -84 25 -105 32 -30 34
-91 5 -135 -14 -22 -20 -47 -20 -92 0 -71 13 -106 46 -128 l23 -15 -24 -36
c-41 -61 -34 -183 14 -222 122 -99 546 -118 746 -32 74 32 95 59 95 125 0 30
4 55 10 55 19 0 32 44 35 114 3 76 -5 100 -42 129 -28 23 -29 51 -3 84 38 49
23 183 -24 222 -22 18 -20 63 3 93 14 17 21 46 25 104 3 43 8 100 11 126 l7
47 86 0 c146 0 316 48 444 125 l56 33 7 -43 c7 -49 47 -104 75 -104 14 0 21
-9 25 -35 3 -19 7 -50 10 -68 l5 -34 -152 5 c-271 8 -481 -50 -489 -133 -1
-11 -1 -48 -1 -82 2 -50 7 -67 28 -92 l26 -32 -44 -42 -45 -42 2 -70 c2 -38 3
-76 4 -83 0 -7 15 -26 32 -42 29 -26 31 -31 25 -76 -4 -27 -9 -84 -12 -127 -7
-96 5 -119 81 -153 90 -42 185 -57 350 -57 159 0 253 15 345 54 77 33 92 56
96 140 1 39 7 76 13 82 6 6 11 48 11 93 l0 82 -37 33 c-35 30 -36 33 -19 43
66 39 71 48 71 146 0 101 -6 92 79 104 21 3 46 12 56 21 20 18 56 95 70 153 6
23 16 42 22 42 10 0 142 -39 748 -220 91 -27 183 -53 205 -58 38 -8 40 -9 50
-62 52 -252 220 -460 374 -460 57 0 308 48 341 65 43 23 98 87 125 148 25 53
29 58 53 53 60 -13 309 -26 485 -26 186 0 188 0 228 -27 77 -51 116 -54 285
-23 162 30 183 37 229 81 23 22 52 33 130 49 191 42 343 107 380 164 10 15 16
79 20 236 5 195 4 222 -14 293 -11 43 -33 102 -48 130 -37 68 -123 159 -196
209 -117 79 -355 181 -532 227 l-70 19 3 78 c7 155 -42 372 -116 519 -49 99
-85 148 -176 243 -252 262 -685 473 -1156 563 -36 7 -69 16 -75 21 -5 4 490 8
1100 8 l1110 -1 19 23 c18 22 19 48 13 804 -4 429 -9 789 -13 798 -11 29 -48
36 -180 36 -76 0 -124 4 -124 10 0 6 -4 10 -9 10 -5 0 -2 -21 6 -47 12 -39 13
-56 4 -90 -31 -113 -141 -163 -241 -110 -136 72 -109 277 43 318 37 10 55 9
104 -7 17 -5 17 -4 -1 10 -25 20 -95 21 -140 2 -18 -8 -48 -32 -66 -55 l-33
-41 -136 0 -136 0 -20 36 c-42 77 -153 132 -247 121 -49 -6 -144 -44 -134 -54
3 -3 25 4 49 16 31 15 65 22 110 22 228 2 330 -266 157 -414 -109 -93 -284
-67 -365 53 -26 39 -30 54 -30 115 0 39 4 78 9 88 8 16 -22 17 -552 17 -537 0
-561 -1 -583 -19 l-24 -19 4 -798 4 -797 -78 6 c-43 4 -147 7 -232 7 l-153 0
0 973 c0 947 -1 973 -20 1004 -10 18 -37 41 -59 53 -40 20 -52 20 -998 18
-527 -1 -1028 -4 -1113 -7z m2054 -10 c48 -12 103 -64 116 -111 6 -22 10 -389
10 -976 l0 -941 -67 -7 c-38 -3 -107 -9 -155 -12 l-88 -7 0 387 c0 373 -1 387
-20 406 -18 18 -33 20 -185 20 -152 0 -167 -2 -185 -20 -19 -19 -20 -33 -20
-504 0 -462 1 -485 19 -507 19 -24 22 -24 186 -22 211 3 205 -1 205 128 l0 93
28 5 c16 3 86 9 155 13 l127 7 -2 -409 -3 -409 -120 -7 c-66 -4 -149 -12 -185
-18 -155 -27 -303 -111 -438 -248 l-82 -85 -128 51 c-163 65 -283 92 -409 92
-135 0 -219 -21 -348 -84 -129 -63 -229 -136 -287 -209 -44 -55 -108 -180
-108 -209 0 -10 -4 -18 -10 -18 -5 0 -10 6 -10 13 0 6 0 792 0 1745 0 1856 -2
1760 48 1805 51 46 44 46 1007 46 503 0 927 -3 949 -8z m1720 -467 c-17 -94
47 -213 139 -259 184 -89 389 44 376 244 l-4 51 127 0 127 0 -1 -54 c-5 -204
275 -261 347 -71 10 25 16 61 13 84 l-4 41 133 0 c120 0 133 -2 143 -19 15
-29 14 -1579 -1 -1598 -10 -12 -192 -13 -1246 -11 -1209 3 -1235 3 -1249 22
-12 17 -14 142 -14 801 0 594 3 784 12 793 9 9 147 12 560 12 l549 0 -7 -36z
m-1928 -808 c11 -16 14 -88 14 -403 l0 -383 -25 0 -25 0 -2 263 -3 262 -134 3
c-101 2 -136 -1 -143 -10 -13 -22 -10 -662 4 -676 15 -15 231 -16 259 -2 16 9
19 22 19 75 0 36 4 65 9 65 5 0 16 3 25 6 14 5 16 -6 16 -82 0 -127 5 -124
-196 -124 -157 0 -163 1 -178 22 -14 20 -16 83 -16 485 0 473 2 506 39 517 9
2 85 4 169 3 139 -2 155 -4 168 -21z m810 -786 c26 -6 79 -13 118 -16 260 -17
649 -125 914 -255 334 -164 563 -368 672 -601 60 -128 91 -260 97 -410 3 -70
3 -133 0 -141 -5 -12 -14 -13 -49 -6 -34 8 -57 25 -112 80 -117 118 -246 205
-408 275 -390 168 -876 256 -1488 268 l-205 4 -3 403 c-2 315 1 404 10 411 18
11 395 1 454 -12z m149 -845 c362 -32 640 -86 895 -174 251 -86 422 -185 570
-327 l89 -86 148 -38 c325 -84 587 -217 693 -351 106 -134 122 -205 117 -491
-5 -212 -6 -220 -28 -244 -80 -85 -289 -147 -667 -196 -143 -18 -218 -22 -517
-22 -192 -1 -395 3 -450 8 l-100 9 80 22 c44 12 93 27 108 33 16 7 76 12 134
12 143 0 197 28 219 115 6 24 2 32 -21 51 l-27 22 38 36 c45 42 36 42 274 7
154 -23 406 -41 495 -34 157 10 291 55 368 122 55 49 90 150 39 113 -70 -51
-210 -94 -373 -113 -109 -13 -607 -6 -662 9 l-27 7 44 50 c24 28 69 86 100
129 75 105 76 137 9 194 -190 158 -667 326 -1283 452 -163 33 -229 56 -269 93
-13 12 -56 72 -97 132 -95 143 -201 265 -289 333 -75 58 -218 132 -256 132
-20 0 -21 2 -9 11 20 14 427 4 655 -16z m-680 0 c141 -29 316 -143 420 -271
22 -27 45 -54 51 -61 6 -7 48 -65 92 -130 44 -65 90 -128 103 -140 46 -41 106
-63 259 -93 393 -79 816 -202 1035 -303 187 -86 305 -171 305 -219 0 -27 -88
-157 -168 -246 l-47 -53 -180 15 c-308 27 -323 18 -60 -39 93 -20 171 -37 172
-39 2 -2 -14 -19 -36 -39 l-39 -35 -138 48 c-167 57 -251 77 -265 63 -6 -6 2
-48 25 -124 27 -90 41 -119 65 -141 l31 -28 -37 -15 c-64 -27 -155 -45 -230
-45 l-73 0 0 110 c0 261 -91 512 -239 659 -36 36 -89 77 -116 91 -58 28 -155
38 -208 21 -91 -30 -168 -120 -211 -249 -29 -85 -51 -254 -42 -322 4 -27 2
-51 -3 -54 -15 -10 -1054 302 -1074 323 -11 11 -26 54 -37 112 -41 206 -117
355 -200 389 -46 19 -91 -5 -118 -62 -28 -58 -46 -187 -38 -273 l7 -70 -31 33
-30 32 0 271 c0 245 2 273 19 307 25 50 44 65 122 100 59 27 73 39 125 108
117 157 276 287 415 338 113 42 261 55 374 31z m-1200 -196 c43 -6 107 -19
144 -30 80 -24 271 -100 271 -108 0 -3 -17 -28 -38 -56 -29 -38 -51 -55 -92
-72 -131 -52 -158 -104 -159 -310 l-1 -73 -313 0 -312 0 -13 29 c-7 16 -29 39
-49 51 -42 24 -150 56 -228 65 -65 9 -65 6 -8 123 58 121 166 218 340 305 158
79 286 100 458 76z m-685 -539 c41 -12 94 -32 118 -46 34 -20 42 -30 42 -54 0
-50 -45 -79 -168 -111 -259 -66 -672 -2 -672 106 0 49 109 102 255 125 101 15
339 4 425 -20z m810 -223 l0 -103 -72 -42 c-140 -79 -293 -122 -438 -122 -78
0 -80 1 -80 25 0 35 -19 72 -47 90 -18 12 -23 24 -23 58 0 23 7 51 15 61 9 12
15 42 15 78 l0 58 315 0 315 0 0 -103z m297 61 c88 -96 146 -365 114 -530 -15
-74 -45 -148 -61 -148 -14 0 -4 95 17 163 22 69 13 252 -16 328 -49 127 -131
148 -171 45 -28 -74 -30 -223 -5 -319 7 -25 6 -27 -16 -19 -31 12 -39 49 -40
187 -1 192 48 315 126 315 20 0 39 -8 52 -22z m-1781 -107 c88 -105 524 -136
744 -52 53 20 54 20 30 1 -40 -32 -176 -70 -281 -78 -197 -15 -395 13 -484 69
-37 24 -45 34 -45 59 0 37 5 38 36 1z m874 -172 c0 -105 -352 -170 -636 -118
-60 11 -168 48 -161 55 2 2 39 -4 83 -13 162 -33 439 -17 561 33 43 18 103 71
103 91 0 10 6 10 25 -3 17 -11 25 -25 25 -45z m2598 21 c164 -72 311 -407 287
-655 -22 -235 -117 -368 -261 -366 -74 0 -134 32 -202 106 -228 250 -245 753
-30 906 59 42 123 45 206 9z m-3323 -249 c186 -61 491 -51 670 22 l40 17 -32
-29 c-151 -139 -794 -105 -811 43 l-4 28 39 -30 c21 -17 65 -40 98 -51z m1480
14 c89 -19 169 -58 183 -89 22 -49 -42 -97 -173 -132 -88 -23 -377 -26 -469
-5 -118 26 -196 73 -196 116 0 51 112 103 270 125 88 12 299 4 385 -15z
m-1625 -99 c0 -25 59 -65 123 -85 110 -34 208 -44 360 -38 123 5 175 13 272
42 11 3 1 -3 -23 -14 -75 -35 -187 -53 -337 -53 -158 -1 -268 18 -353 58 -56
27 -77 53 -67 84 7 23 25 27 25 6z m1852 -133 c86 -78 -138 -173 -407 -173
-134 0 -296 30 -355 66 -14 8 -17 13 -8 10 174 -53 440 -52 615 2 61 18 123
65 123 93 0 23 8 24 32 2z m2510 -9 c110 -40 148 -61 148 -85 0 -38 -31 -80
-73 -100 -51 -23 -142 -26 -134 -5 7 16 -10 148 -23 189 -11 33 -9 33 82 1z
m-3497 -29 c9 -25 6 -31 -27 -59 -66 -57 -202 -87 -392 -87 -142 0 -233 13
-309 41 -52 20 -104 49 -62 35 89 -29 162 -38 310 -39 163 -1 262 13 353 51
43 17 92 61 92 81 0 23 24 7 35 -23z m174 -169 c32 -34 105 -63 200 -80 96
-16 113 -25 39 -19 -171 13 -314 64 -333 117 -9 25 -6 31 25 59 l35 31 6 -42
c3 -23 15 -52 28 -66z m-1011 -7 c7 -11 37 -32 67 -45 90 -41 185 -57 350 -57
159 0 257 15 343 53 44 20 45 20 28 1 -24 -27 -101 -58 -188 -77 -87 -18 -312
-21 -411 -5 -130 22 -227 72 -227 119 0 36 19 42 38 11z m1822 -125 c0 -118
-447 -176 -716 -93 -36 11 -64 22 -61 25 2 2 17 0 32 -6 60 -23 260 -35 372
-22 188 21 299 66 318 130 l9 32 23 -22 c13 -12 23 -32 23 -44z m-954 -1 c9
-33 -10 -57 -68 -85 -54 -26 -179 -59 -220 -57 -13 0 4 7 38 14 83 18 161 53
184 83 11 13 20 40 20 58 0 32 1 33 20 22 12 -7 23 -23 26 -35z m-846 -156
c37 -78 193 -122 440 -122 126 0 152 -2 110 -8 -79 -12 -365 -2 -425 16 -126
36 -173 72 -161 123 8 32 18 30 36 -9z m1037 -53 c156 -69 498 -72 671 -6 63
24 70 12 9 -16 -106 -50 -151 -57 -357 -57 -157 0 -207 4 -259 18 -117 33
-181 80 -165 121 5 13 9 12 27 -10 11 -15 45 -37 74 -50z m-400 -60 c-3 -3
-12 -4 -19 -1 -8 3 -5 6 6 6 11 1 17 -2 13 -5z"/>
<path d="M937 5152 c-15 -16 -17 -54 -17 -324 0 -283 1 -306 18 -321 17 -16
82 -17 730 -17 699 0 712 0 732 20 19 19 20 33 20 318 0 253 -2 301 -16 320
l-15 22 -718 0 c-683 0 -719 -1 -734 -18z m325 -53 c10 -5 18 -19 18 -29 0
-13 7 -20 19 -20 52 0 51 5 51 -251 l0 -239 -139 0 c-117 0 -140 2 -145 16
-12 31 -7 449 6 462 7 7 27 12 45 12 28 0 33 3 33 24 0 15 7 26 18 28 34 8 76
7 94 -3z m996 -63 l3 -46 -320 0 -321 0 0 43 c0 24 2 46 4 48 2 2 145 4 318 3
l313 -1 3 -47z m0 -293 l-3 -178 -317 -3 -318 -2 0 180 0 180 320 0 320 0 -2
-177z"/>
<path d="M1075 4759 c-4 -5 48 -9 132 -8 81 0 130 4 118 9 -28 11 -243 11
-250 -1z"/>
<path d="M1090 4710 c0 -6 45 -10 115 -10 70 0 115 4 115 10 0 6 -45 10 -115
10 -70 0 -115 -4 -115 -10z"/>
<path d="M1094 4663 c11 -11 215 -13 222 -2 3 5 -45 9 -112 9 -65 0 -114 -3
-110 -7z"/>
<path d="M1148 4613 c34 -2 88 -2 120 0 31 2 3 3 -63 3 -66 0 -92 -1 -57 -3z"/>
<path d="M976 4069 c-54 -43 -56 -56 -56 -465 0 -327 2 -380 16 -410 32 -66
44 -69 381 -72 348 -4 357 -2 393 72 19 40 20 60 20 407 0 210 -4 379 -10 400
-6 19 -22 46 -36 60 l-26 24 -327 3 c-325 3 -328 3 -355 -19z m673 -3 c62 -32
61 -27 61 -462 l0 -396 -34 -34 -34 -34 -317 0 -317 0 -34 34 -34 34 0 397 c0
261 4 403 11 416 5 11 25 29 42 39 30 19 53 20 330 20 241 0 303 -3 326 -14z"/>
<path d="M1255 3967 c-8 -22 -84 -351 -82 -353 1 -1 45 6 97 16 52 10 96 17
97 16 2 -2 -59 -197 -64 -205 -2 -2 -19 0 -38 6 -19 6 -35 7 -35 2 0 -5 14
-52 31 -105 l31 -97 74 74 c41 40 74 77 74 81 0 5 -13 8 -30 8 -18 0 -30 5
-30 13 0 8 31 87 70 177 38 90 68 165 67 166 -2 2 -44 -4 -95 -13 -50 -9 -94
-14 -97 -11 -3 2 9 51 26 107 16 56 29 107 26 114 -5 16 -117 20 -122 4z"/>
<path d="M3470 4820 c-20 -20 -26 -65 -12 -87 13 -20 55 -31 81 -21 29 11 5
27 305 -212 229 -183 244 -197 243 -227 -2 -64 69 -97 113 -53 22 22 26 51 9
81 -9 17 -1 30 53 88 58 63 65 68 90 59 18 -6 34 -6 47 2 19 10 36 -1 151 -91
117 -93 129 -106 132 -137 4 -48 44 -78 84 -65 37 12 58 52 45 86 -8 21 -3 30
47 78 53 50 60 54 104 54 45 -1 54 -7 222 -140 170 -135 176 -141 176 -176 0
-43 25 -69 67 -69 36 0 63 27 63 63 0 50 -58 84 -99 58 -14 -9 -63 25 -279
199 -85 68 -93 77 -88 103 12 57 -31 98 -87 83 -29 -7 -49 -48 -41 -82 6 -22
-2 -35 -47 -80 -49 -49 -56 -54 -87 -48 -23 4 -38 2 -50 -9 -16 -15 -27 -8
-147 87 -123 99 -129 106 -129 141 -1 29 -7 43 -28 58 -24 18 -30 18 -57 7
-33 -13 -47 -45 -38 -81 4 -15 -11 -37 -59 -88 -58 -62 -69 -69 -111 -74 -31
-4 -55 -1 -68 8 -11 7 -128 99 -260 204 -234 188 -239 193 -236 226 5 63 -65
99 -109 55z"/>
<path d="M3455 4473 c-46 -12 -45 -2 -45 -463 0 -338 3 -440 13 -447 6 -6 42
-13 79 -17 106 -10 98 -47 98 469 0 281 -4 446 -10 450 -14 8 -111 14 -135 8z"/>
<path d="M3700 4271 c-13 -25 -14 -690 0 -711 7 -11 29 -15 85 -15 56 0 78 4
85 15 15 23 13 703 -2 718 -7 7 -41 12 -85 12 -61 0 -74 -3 -83 -19z m154 -7
c14 -13 16 -59 16 -344 0 -181 -3 -335 -6 -344 -5 -12 -21 -16 -73 -16 -39 0
-72 5 -79 12 -13 13 -18 664 -4 684 15 25 124 31 146 8z"/>
<path d="M4262 4178 c-9 -9 -12 -93 -12 -315 l0 -303 26 -10 c45 -18 122 -12
144 10 19 19 20 33 20 309 0 250 -2 292 -16 305 -19 20 -144 22 -162 4z"/>
<path d="M4816 4174 c-14 -13 -16 -55 -16 -303 0 -219 3 -291 13 -305 16 -22
123 -34 155 -17 22 12 22 14 22 314 0 222 -3 306 -12 315 -18 18 -143 16 -162
-4z m155 -11 c5 -5 8 -135 7 -304 l-3 -294 -75 0 -75 0 -3 302 c-3 342 -11
312 86 307 30 -1 58 -6 63 -11z"/>
<path d="M4005 4052 c-11 -2 -23 -9 -27 -16 -4 -6 -8 -115 -8 -243 0 -225 1
-233 21 -243 28 -16 148 -7 160 11 5 8 9 116 9 240 0 190 -2 229 -15 239 -15
12 -102 20 -140 12z m135 -40 c3 -12 3 -118 0 -235 l-5 -212 -69 -3 c-49 -2
-72 1 -77 10 -15 22 -11 442 3 456 8 8 36 12 77 10 58 -3 66 -5 71 -26z"/>
<path d="M4541 3986 c-7 -9 -12 -82 -14 -212 -3 -237 -4 -235 94 -233 100 3
100 3 98 229 -2 232 -1 230 -98 230 -46 0 -72 -5 -80 -14z m147 -5 c10 -1 12
-46 10 -208 l-3 -208 -75 0 -75 0 -3 199 c-2 139 1 203 9 212 8 10 28 13 68
10 31 -2 62 -5 69 -5z"/>
<path d="M5102 3884 c-21 -14 -22 -22 -22 -163 0 -174 0 -174 93 -176 100 -3
97 -9 97 175 0 147 -1 160 -19 170 -30 16 -123 12 -149 -6z m153 -164 l0 -155
-75 0 -75 0 -5 135 c-7 184 -8 182 82 178 l73 -3 0 -155z"/>
<path d="M5400 3763 c-14 -3 -28 -10 -32 -17 -11 -15 -10 -168 1 -184 5 -8 36
-16 78 -19 95 -7 103 2 103 111 0 59 -4 87 -14 95 -15 13 -98 21 -136 14z
m130 -37 c5 -13 6 -54 2 -92 l-7 -69 -69 -3 c-49 -2 -72 1 -77 10 -12 19 -11
136 1 159 9 16 22 19 76 19 59 0 65 -2 74 -24z"/>
<path d="M2086 4104 c-22 -22 -22 -146 0 -165 11 -9 51 -12 140 -11 69 1 129
4 134 7 6 4 10 42 10 85 0 68 -3 81 -19 90 -11 5 -71 10 -135 10 -91 0 -118
-3 -130 -16z m268 -20 c9 -23 7 -117 -2 -132 -7 -9 -40 -12 -133 -10 l-124 3
-3 78 -3 77 130 0 c108 0 130 -3 135 -16z"/>
<path d="M2926 2482 c-3 -5 20 -27 52 -47 87 -58 177 -150 255 -260 90 -126
158 -199 211 -224 40 -20 62 -21 666 -22 344 -1 635 -1 648 0 37 2 25 27 -40
82 -192 160 -442 282 -727 354 -166 42 -439 85 -636 100 -44 3 -100 8 -125 10
-130 12 -298 16 -304 7z m379 -27 c673 -59 1065 -183 1379 -435 42 -34 76 -66
76 -71 0 -5 -14 -9 -31 -9 -22 0 -42 12 -75 43 -150 142 -400 254 -692 311
-145 29 -182 32 -182 15 0 -6 17 -48 39 -93 45 -94 91 -219 91 -246 0 -10 -7
-21 -16 -24 -26 -10 -377 -7 -416 4 -53 15 -129 89 -211 204 -82 117 -168 210
-250 272 l-59 44 89 0 c48 0 165 -7 258 -15z m585 -160 c329 -58 565 -158 760
-325 l35 -29 -227 -1 c-126 0 -228 3 -228 8 1 4 7 18 15 32 20 35 18 57 -5 80
-41 41 -172 17 -271 -50 l-43 -29 -32 87 c-17 48 -47 122 -67 165 -20 42 -33
77 -29 77 4 0 45 -7 92 -15z m303 -270 c19 -19 11 -52 -18 -71 -17 -11 -47
-14 -121 -12 l-97 3 39 28 c41 28 135 66 166 67 9 0 23 -7 31 -15z"/>
<path d="M5440 1389 c-174 -8 -289 -28 -370 -66 l-55 -26 35 -8 c68 -15 306
-21 434 -10 125 11 301 45 311 60 2 5 -5 17 -16 27 -26 24 -135 31 -339 23z"/>
<path d="M5725 869 c-144 -56 -310 -85 -565 -98 -133 -6 -163 -11 -202 -31
-56 -28 -125 -94 -108 -105 6 -4 75 -2 153 5 470 37 839 137 810 218 -10 27
-38 30 -88 11z"/>
<path d="M2450 2470 c-151 -24 -328 -126 -443 -255 -59 -67 -59 -118 1 -149
38 -20 265 -69 482 -105 102 -17 195 -34 208 -36 12 -3 22 -1 22 4 0 4 -24 12
-52 15 -96 13 -431 76 -538 102 -126 30 -150 43 -150 85 0 25 14 45 68 101
230 238 537 297 798 152 132 -73 279 -233 368 -403 l37 -71 -30 0 c-47 0 -60
9 -87 61 -34 69 -67 83 -169 75 -44 -3 -93 -10 -109 -14 -38 -10 -67 -50 -69
-92 -3 -58 29 -68 275 -90 117 -11 216 -20 219 -20 18 0 18 36 1 60 -11 14
-32 50 -46 78 -122 241 -313 423 -508 483 -71 23 -201 31 -278 19z m614 -439
c14 -6 39 -34 58 -68 33 -57 36 -58 88 -66 58 -8 74 -17 68 -39 -2 -11 -33
-11 -193 4 -226 20 -247 24 -275 46 -20 16 -20 19 -6 54 20 46 27 51 106 64
86 15 124 16 154 5z"/>
<path d="M2420 1845 c0 -27 60 -53 177 -75 64 -11 118 -18 121 -15 3 3 -6 17
-20 31 -19 20 -47 30 -114 44 -162 32 -164 33 -164 15z"/>
<path d="M3884 1547 c-7 -20 86 -138 136 -171 87 -57 160 -71 455 -82 129 -5
173 -3 228 10 76 18 167 54 167 67 0 23 -306 119 -500 155 -175 34 -476 46
-486 21z m183 -57 c82 -91 143 -116 323 -134 80 -8 163 -13 185 -11 100 11
133 17 177 31 45 15 88 12 88 -5 0 -13 -80 -41 -169 -58 -77 -15 -98 -15 -303
0 -232 18 -267 26 -350 83 -48 34 -132 141 -116 147 7 3 35 6 62 6 48 1 51 -1
103 -59z"/>
<path d="M493 1763 c-13 -2 -23 -8 -23 -13 0 -5 -13 -11 -29 -15 -16 -3 -35
-13 -42 -21 -21 -26 5 -37 101 -44 86 -6 111 -13 97 -26 -3 -3 -38 -7 -78 -8
-47 -1 -74 -6 -77 -14 -2 -8 12 -12 52 -12 33 0 56 -4 56 -11 0 -6 14 -9 33
-7 17 2 31 8 31 13 -1 6 18 16 42 23 48 14 57 34 24 52 -11 6 -59 14 -105 17
-47 3 -85 10 -85 14 0 8 21 11 109 13 58 2 50 26 -8 26 -27 0 -53 5 -56 10 -3
6 -9 9 -13 9 -4 -1 -17 -4 -29 -6z"/>
<path d="M3455 1239 c-113 -66 -162 -248 -119 -442 64 -288 288 -425 407 -250
150 224 7 685 -217 700 -28 2 -60 -2 -71 -8z"/>
<path d="M1565 1090 c-3 -5 -23 -10 -43 -10 -41 0 -83 -18 -90 -38 -2 -7 13
-20 37 -30 22 -9 41 -20 41 -24 0 -11 -52 -14 -94 -5 -22 4 -45 6 -53 3 -23
-9 -14 -26 13 -26 19 0 25 -4 20 -15 -4 -11 1 -15 19 -15 13 0 26 4 29 9 3 5
30 11 61 13 34 3 62 12 75 23 24 21 16 34 -30 50 -16 6 -31 15 -32 20 -4 14
48 18 82 7 21 -8 33 -7 46 2 16 12 15 14 -10 20 -15 4 -24 11 -21 16 3 6 -5
10 -19 10 -14 0 -28 -4 -31 -10z"/>
<path d="M4936 5359 c-8 -52 5 -69 55 -69 46 0 51 -17 9 -33 -36 -14 -34 -33
4 -30 14 1 26 -2 26 -8 0 -5 4 -9 9 -9 5 0 12 23 16 51 8 59 1 69 -57 69 -43
0 -50 16 -13 30 30 11 33 30 6 30 -11 0 -26 2 -34 6 -10 4 -16 -6 -21 -37z"/>
<path d="M4558 5021 c-21 -20 -38 -46 -38 -58 0 -22 37 -57 71 -68 10 -4 19
-15 19 -27 0 -18 -5 -19 -47 -16 -39 2 -48 0 -51 -14 -2 -12 5 -19 21 -23 14
-4 27 -15 30 -26 7 -25 27 -25 34 0 3 11 13 21 23 24 26 7 53 52 45 77 -4 11
-24 32 -46 46 -53 33 -53 58 0 51 30 -4 41 -1 46 11 6 16 -10 32 -32 32 -7 0
-13 7 -13 15 0 24 -22 15 -62 -24z"/>
<path d="M5225 5019 c-4 -5 -4 -13 -1 -16 3 -3 1 -12 -5 -19 -6 -8 -8 -25 -5
-39 6 -22 12 -25 52 -25 49 0 57 -16 16 -35 -27 -12 -29 -35 -3 -35 11 0 26
-3 34 -6 9 -3 16 3 19 18 3 13 9 31 12 40 12 27 -29 61 -65 53 -23 -5 -29 -3
-29 10 0 9 9 19 20 22 25 7 27 35 3 31 -10 -1 -23 1 -30 5 -6 4 -15 2 -18 -4z"/>
<path d="M5351 2953 c0 -6 -4 -20 -7 -30 -5 -14 -4 -15 5 -7 7 7 11 20 8 30
-3 11 -5 14 -6 7z"/>
<path d="M5250 2890 c0 -5 10 -10 23 -10 18 0 19 2 7 10 -19 13 -30 13 -30 0z"/>
<path d="M5380 2850 c20 -13 43 -13 35 0 -3 6 -16 10 -28 10 -18 0 -19 -2 -7
-10z"/>
<path d="M5314 2814 c-4 -10 -9 -22 -11 -26 -2 -5 0 -8 5 -8 10 0 24 41 17 48
-3 3 -8 -4 -11 -14z"/>
<path d="M5435 2568 c70 -38 55 -128 -22 -128 -34 0 -63 26 -63 58 0 12 -5 22
-11 22 -19 0 0 -53 28 -78 49 -44 124 -7 126 61 1 42 -25 77 -57 77 -21 -1
-21 -1 -1 -12z"/>
<path d="M2413 810 c-99 -11 -168 -28 -231 -57 -59 -28 -80 -58 -80 -116 0
-32 -7 -45 -36 -72 -35 -32 -36 -35 -36 -107 0 -82 12 -108 61 -133 23 -13 29
-22 29 -50 0 -61 76 -108 221 -136 94 -18 319 -15 409 4 84 19 176 60 189 85
5 9 11 51 14 92 5 73 4 75 -27 106 -17 17 -38 33 -46 36 -11 4 -6 14 23 42 36
36 37 39 37 110 0 86 -15 112 -83 144 -91 43 -302 67 -444 52z m293 -25 c96
-17 190 -57 211 -91 12 -19 11 -25 -12 -52 -49 -59 -189 -93 -385 -93 -321 -1
-504 106 -330 193 109 54 340 73 516 43z m-595 -244 c12 -34 76 -72 164 -96
87 -24 327 -31 430 -12 44 8 82 13 83 11 10 -8 -140 -44 -227 -54 -266 -29
-559 50 -512 139 9 17 37 39 49 41 2 0 8 -13 13 -29z m807 -124 c31 -29 28
-51 -14 -85 -57 -47 -222 -83 -366 -81 l-73 2 80 7 c211 18 325 76 325 165 0
28 8 27 48 -8z"/>
<path d="M2533 706 c-17 -8 -34 -23 -38 -34 -11 -35 -85 -36 -85 -1 0 28 -60
27 -67 -1 -3 -11 -14 -20 -24 -20 -11 0 -19 -4 -19 -9 0 -9 104 -21 184 -21
43 0 53 4 82 35 37 39 73 46 81 15 3 -11 10 -20 17 -20 28 0 56 14 56 26 0 8
10 14 22 14 33 0 11 14 -25 17 -18 1 -59 4 -92 8 -41 4 -70 1 -92 -9z"/>
</g>
</svg>
