<?xml version="1.0" standalone="no"?>
<!DOCTYPE svg PUBLIC "-//W3C//DTD SVG 20010904//EN"
 "http://www.w3.org/TR/2001/REC-SVG-20010904/DTD/svg10.dtd">
<svg version="1.0" xmlns="http://www.w3.org/2000/svg"
 width="573.000000pt" height="568.000000pt" viewBox="0 0 573.000000 568.000000"
 preserveAspectRatio="xMidYMid meet">

<g transform="translate(0.000000,568.000000) scale(0.100000,-0.100000)"
fill="#000000" stroke="none">
<path d="M2366 5604 c-32 -32 -11 -84 34 -84 49 0 73 38 50 81 -13 23 -62 26
-84 3z m68 -10 c9 -8 16 -19 16 -24 0 -15 -31 -40 -50 -40 -34 0 -46 53 -16
72 17 12 33 9 50 -8z"/>
<path d="M1910 5543 c-375 -59 -759 -225 -1025 -443 -134 -110 -335 -345 -335
-392 0 -7 24 23 54 67 113 168 234 285 421 410 295 197 683 335 990 352 55 3
102 7 104 9 6 5 -176 2 -209 -3z"/>
<path d="M1694 5348 c3 -13 5 -35 5 -50 1 -37 13 -35 59 6 l37 35 -37 15 c-53
22 -69 21 -64 -6z m66 -18 c0 -11 -23 -30 -37 -30 -8 0 -13 12 -13 30 0 28 1
29 25 18 14 -6 25 -14 25 -18z"/>
<path d="M1485 5261 c-410 -156 -763 -456 -931 -792 -20 -39 -33 -73 -30 -76
2 -3 20 27 40 66 165 334 560 666 949 796 48 17 87 33 87 37 0 12 -7 10 -115
-31z"/>
<path d="M2093 5107 c-35 -13 -53 -27 -34 -27 16 0 81 28 81 34 0 8 -10 6 -47
-7z"/>
<path d="M1920 5043 c-19 -9 -30 -17 -24 -20 11 -4 84 24 84 32 0 9 -24 4 -60
-12z"/>
<path d="M1778 4982 c-21 -10 -38 -20 -38 -25 0 -8 70 19 85 34 13 13 -3 10
-47 -9z"/>
<path d="M1627 4909 c-22 -11 -36 -23 -33 -27 8 -8 76 28 76 40 0 10 2 11 -43
-13z"/>
<path d="M1477 4824 c-22 -14 -37 -28 -34 -30 7 -7 77 36 77 47 0 12 2 12 -43
-17z"/>
<path d="M3026 4757 c-10 -8 -16 -32 -18 -67 l-3 -55 -85 -30 c-82 -28 -91
-29 -265 -30 -205 0 -216 2 -576 91 -300 74 -425 94 -579 94 -127 0 -243 -24
-352 -73 l-68 -30 0 -65 c0 -54 -4 -70 -22 -89 -21 -22 -13 -34 9 -12 7 7 12
-115 18 -418 4 -235 9 -430 11 -432 2 -2 28 8 59 23 114 54 205 71 375 70 106
0 183 -6 245 -18 80 -15 470 -110 503 -121 8 -3 -13 -31 -56 -74 -177 -176
-181 -374 -13 -555 25 -27 113 -105 195 -174 81 -68 189 -164 238 -211 l91
-87 -39 -59 c-26 -39 -40 -53 -42 -42 -4 21 -3 21 -307 2 -132 -8 -355 -21
-495 -30 -305 -18 -411 -25 -550 -33 l-105 -7 -34 38 c-18 21 -36 35 -39 32
-3 -3 7 -19 23 -35 16 -16 27 -31 24 -33 -2 -2 -137 -12 -299 -21 -162 -9
-319 -19 -347 -22 l-53 -6 0 -63 0 -64 -55 -31 c-150 -86 -260 -229 -285 -370
-6 -36 -20 -94 -31 -130 -58 -194 -61 -381 -9 -588 28 -109 102 -255 159 -312
63 -63 104 -76 190 -61 36 6 146 20 244 31 176 19 178 19 355 0 216 -24 247
-31 342 -79 41 -21 118 -54 170 -74 209 -78 223 -88 357 -255 197 -246 264
-296 371 -274 26 6 139 20 252 32 113 11 222 26 243 31 72 19 137 98 182 220
l21 58 33 -93 32 -93 227 -37 227 -38 415 31 c483 37 907 68 1035 77 l90 6
305 156 c168 85 306 156 308 157 1 1 -56 97 -127 212 -71 116 -135 221 -141
234 -7 12 -23 84 -36 158 -40 239 -112 408 -219 517 -83 84 -125 98 -243 79
-48 -7 -163 -23 -257 -35 -93 -12 -185 -23 -203 -26 -78 -12 -166 -144 -199
-299 -9 -44 -17 -81 -19 -83 -1 -2 -49 24 -106 58 -107 64 -337 180 -356 180
-6 0 -12 21 -14 48 l-3 47 -100 18 c-55 10 -125 23 -155 29 l-55 11 87 17
c173 36 267 78 329 148 49 56 69 118 70 216 1 115 -34 181 -165 311 -115 115
-220 191 -458 335 l-168 101 0 51 c0 49 5 57 185 317 102 146 193 275 201 286
15 20 16 19 37 -10 44 -62 152 -166 221 -213 128 -89 257 -148 576 -264 410
-150 607 -276 735 -472 27 -42 52 -76 55 -76 3 0 115 158 250 352 135 193 265
379 288 413 l44 62 -18 34 c-26 53 -96 138 -160 200 -111 105 -244 183 -458
268 l-147 58 39 25 c21 14 67 51 103 81 84 71 211 153 328 211 95 48 123 75
35 35 -128 -59 -257 -141 -379 -243 -33 -27 -79 -62 -103 -77 l-44 -28 -66 25
c-37 14 -90 34 -119 45 l-52 21 122 62 c67 34 173 95 236 135 117 74 250 145
334 176 26 10 50 22 54 28 19 32 -230 -89 -387 -188 -175 -110 -367 -207 -394
-199 -43 13 -218 105 -278 146 -70 47 -215 189 -236 229 -12 23 -11 30 17 74
34 54 29 85 -14 85 -20 0 -56 -46 -228 -291 l-203 -291 -291 -2 -290 -1 -7
155 c-3 85 -6 280 -6 433 0 161 -4 286 -10 296 -13 25 -35 32 -54 18z m-1293
-32 c15 -6 17 -22 17 -125 0 -104 2 -119 18 -124 9 -3 51 -12 92 -20 41 -9
108 -24 148 -35 66 -17 72 -18 73 -3 0 10 0 63 -1 120 -1 72 2 102 10 102 13
0 259 -56 300 -68 25 -7 25 -9 28 -129 l3 -121 67 -7 c91 -10 218 -14 242 -8
19 5 20 14 20 124 l0 118 38 7 c70 12 157 36 216 60 33 13 61 24 63 24 2 0 2
-55 1 -122 l-3 -123 -85 -32 c-47 -18 -118 -38 -157 -44 l-73 -13 0 -122 0
-122 -67 -4 c-38 -2 -112 1 -165 6 l-97 9 -3 125 -3 126 -160 37 c-88 20 -162
35 -164 33 -3 -3 -4 -56 -2 -119 2 -90 0 -115 -11 -115 -11 0 -110 22 -279 62
-43 10 -45 18 -48 163 -1 49 -3 91 -5 92 -8 8 -155 23 -233 23 l-93 0 0 -125
c0 -121 -1 -125 -22 -129 -13 -3 -51 -10 -86 -17 -34 -6 -96 -26 -137 -44
l-75 -33 0 125 0 124 63 28 c57 26 167 57 227 63 25 3 25 3 28 127 l3 124 147
-6 c81 -3 155 -8 165 -12z m2352 -431 c15 -26 61 -82 103 -126 l75 -79 -66
-97 c-37 -53 -67 -100 -67 -103 0 -9 130 -94 205 -133 l70 -37 20 24 c11 13
43 58 72 100 l52 75 118 -47 c65 -26 135 -54 156 -60 23 -8 36 -18 34 -25 -3
-7 -33 -52 -67 -100 -33 -49 -60 -89 -58 -90 2 -2 71 -29 153 -61 83 -32 152
-59 154 -61 4 -3 -78 -127 -124 -187 -13 -18 -20 -16 -153 37 -77 31 -145 56
-151 56 -25 0 -16 24 44 111 36 52 65 97 65 100 0 4 -35 19 -77 34 -43 16
-113 43 -155 61 l-77 33 -71 -101 c-39 -55 -68 -104 -63 -108 9 -9 140 -63
240 -100 40 -14 60 -27 56 -34 -9 -16 -115 -169 -124 -180 -5 -5 -35 1 -71 14
-101 37 -232 91 -241 100 -5 4 21 49 57 101 36 51 66 96 66 100 0 4 -33 24
-72 44 -75 38 -198 121 -198 133 0 4 30 51 67 105 l67 98 -66 67 c-70 71 -138
165 -138 189 0 16 120 193 131 193 4 0 19 -21 34 -46z m-2425 -55 l100 -12 0
-125 c0 -124 0 -124 -22 -118 -13 4 -87 10 -164 13 l-141 6 -7 60 c-10 98 -7
175 7 180 22 9 124 7 227 -4z m620 -135 c63 -14 121 -27 128 -30 9 -2 12 -36
12 -124 l0 -122 -32 7 c-18 4 -93 21 -165 38 l-133 31 0 122 0 122 38 -9 c20
-6 89 -21 152 -35z m794 -16 c3 -29 6 -83 6 -120 l0 -67 -77 -29 c-82 -32
-228 -66 -242 -57 -5 2 -9 57 -10 120 -2 87 1 116 11 119 7 2 50 10 95 19 45
8 106 27 135 40 29 14 58 26 64 26 6 1 14 -23 18 -51z m-1646 -215 l-3 -117
-69 -13 c-79 -14 -155 -38 -208 -65 l-38 -18 0 120 0 120 39 20 c56 28 199 69
244 69 l38 1 -3 -117z m480 72 c59 -14 124 -30 145 -36 l37 -10 0 -120 c0
-111 -1 -121 -17 -114 -31 12 -267 65 -290 65 -23 0 -23 2 -23 120 0 141 -13
133 148 95z m1900 -68 c22 -34 70 -93 105 -129 l65 -67 -63 -91 c-35 -51 -66
-94 -69 -97 -16 -17 -138 114 -196 210 l-23 38 68 100 c38 54 69 99 70 99 1 0
21 -28 43 -63z m-210 -37 l73 0 -58 -84 -58 -85 -65 -6 c-106 -10 -262 -33
-328 -49 l-62 -14 0 118 0 119 73 3 c39 2 135 2 212 1 77 -1 173 -2 213 -3z
m-943 -35 c50 0 93 -4 96 -9 4 -5 7 -57 8 -116 2 -91 -1 -109 -14 -114 -43
-16 -304 6 -317 28 -4 6 -8 60 -8 119 l0 108 73 -8 c39 -4 113 -8 162 -8z
m2629 -185 c50 -28 113 -67 139 -86 l48 -35 -24 -32 c-13 -18 -45 -62 -71 -99
l-46 -67 -81 55 c-44 30 -107 68 -140 85 -39 19 -57 34 -53 42 21 36 127 187
131 187 3 0 47 -23 97 -50z m-1868 -147 c-263 -380 -297 -428 -306 -431 -6 -2
-10 100 -10 271 l0 275 68 15 c37 9 101 20 142 26 41 6 86 13 100 15 14 2 48
4 77 5 l52 1 -123 -177z m-398 120 c-2 -9 -24 -23 -53 -33 -120 -41 -258 -128
-310 -196 -56 -73 -73 -170 -41 -232 23 -44 108 -117 226 -193 58 -37 113 -74
123 -81 16 -12 8 -27 -97 -176 -63 -90 -116 -166 -120 -169 -3 -3 -49 36 -103
87 -54 51 -161 145 -238 210 -250 208 -300 281 -300 430 0 69 4 94 23 132 32
64 82 125 142 174 l51 41 72 -14 c197 -38 403 -34 539 11 90 30 90 30 86 9z
m3 -265 c0 -128 3 -271 5 -318 3 -72 1 -90 -16 -117 l-20 -33 -85 53 c-113 69
-226 154 -261 196 -25 30 -29 43 -29 95 0 40 7 75 20 101 26 53 101 125 171
166 63 36 182 88 202 89 9 0 12 -53 13 -232z m868 113 c20 -16 80 -53 133 -83
l98 -54 -66 -95 c-36 -52 -71 -93 -77 -91 -30 8 -158 79 -215 119 l-63 44 44
62 c24 34 53 77 66 95 12 17 27 32 33 32 5 0 27 -13 47 -29z m1523 -220 c35
-39 78 -95 96 -125 l34 -55 -70 -101 -70 -101 -43 63 c-23 35 -71 93 -106 129
l-64 66 66 97 c37 53 72 96 80 96 7 0 42 -31 77 -69z m-438 7 c66 -35 206
-127 206 -136 0 -3 -30 -50 -67 -104 l-66 -97 64 -68 c64 -69 139 -172 139
-193 0 -13 -122 -190 -131 -190 -3 0 -22 26 -42 58 -19 31 -66 88 -103 125
l-67 68 67 98 c36 53 66 100 66 103 0 10 -156 111 -218 142 -29 15 -57 24 -62
21 -5 -3 -39 -48 -76 -100 l-65 -95 -30 15 c-16 9 -84 36 -152 61 -67 25 -124
48 -126 50 -7 7 123 194 134 194 8 -1 260 -97 302 -116 6 -3 41 39 80 95 37
55 72 100 77 101 4 0 36 -14 70 -32z m-1940 -980 l7 -518 -38 -1 c-21 0 -47
-2 -57 -4 -18 -3 -136 -8 -162 -6 -6 1 -19 20 -28 44 -26 68 -69 113 -132 136
-59 23 -143 27 -176 10 -32 -17 -30 -6 14 55 36 51 44 57 67 52 14 -4 88 -9
163 -13 159 -7 211 3 255 49 24 25 28 37 27 81 0 34 -9 68 -24 97 -28 55 -101
159 -129 184 -12 11 -21 23 -21 28 0 8 223 329 226 325 1 -1 4 -235 8 -519z
m325 375 c267 -167 438 -319 497 -439 37 -75 44 -170 19 -247 -43 -133 -139
-193 -397 -247 l-106 -22 -122 20 c-67 12 -124 23 -126 25 -2 2 -7 241 -11
532 l-6 529 59 -33 c32 -19 119 -72 193 -118z m-514 -258 c150 -194 154 -314
13 -345 -55 -11 -157 -12 -233 -1 l-50 7 49 8 48 8 -7 102 -7 103 64 91 c34
50 65 91 68 91 3 0 28 -29 55 -64z m-450 -104 c17 -1 15 -4 -11 -20 -35 -21
-74 -67 -74 -86 0 -7 -22 -29 -50 -49 -82 -59 -168 -195 -225 -358 -15 -43
-30 -78 -34 -78 -3 0 -42 -3 -86 -6 -249 -16 -330 -21 -332 -20 -1 1 14 33 34
71 118 230 312 427 495 502 68 27 184 51 233 48 17 -2 39 -3 50 -4z m253 -128
l3 -83 -44 0 c-25 0 -60 -3 -78 -7 l-34 -6 29 33 c28 34 32 76 12 122 -6 13
-1 17 26 21 83 11 83 11 86 -80z m-688 19 c-19 -15 -64 -55 -100 -88 l-65 -62
-85 -6 c-72 -5 -476 -30 -845 -52 -55 -3 -158 -9 -230 -14 -71 -5 -130 -8
-131 -7 -1 1 -4 38 -5 82 l-4 80 730 46 c402 26 739 47 750 47 16 1 13 -4 -15
-26z m-1488 -40 c3 -9 6 -56 7 -102 1 -47 6 -89 11 -94 8 -8 343 6 495 20 l50
4 54 -155 c29 -86 51 -158 48 -161 -2 -3 -49 -7 -103 -10 l-99 -6 -33 61 c-40
75 -91 127 -148 152 -41 19 -48 19 -161 4 -65 -8 -171 -19 -236 -24 -124 -9
-152 -19 -194 -70 -21 -24 -23 -25 -23 -5 0 109 121 280 260 369 64 40 66 41
72 17z m1898 -22 c25 -6 68 -10 96 -8 l52 4 -39 -49 c-22 -27 -55 -78 -75
-113 -20 -35 -40 -66 -45 -70 -20 -12 -59 -84 -70 -128 l-11 -46 -57 0 c-31 0
-86 -3 -123 -7 -58 -5 -68 -3 -68 10 0 25 74 201 111 263 49 84 134 168 162
161 12 -3 42 -11 67 -17z m-600 -114 c0 -3 -22 -34 -49 -70 -27 -35 -75 -110
-106 -165 l-57 -101 -62 0 -62 0 -81 153 c-45 83 -79 154 -77 156 10 10 494
36 494 27z m850 -88 c36 -14 90 -57 90 -73 0 -9 -20 -15 -62 -20 -71 -7 -234
-33 -260 -41 -32 -9 -48 -35 -48 -74 0 -60 15 -64 233 -67 103 -1 187 -6 187
-10 1 -17 -214 -26 -334 -14 -65 6 -123 14 -128 17 -16 10 0 120 24 171 26 56
89 110 142 122 43 10 114 5 156 -11z m114 -113 c3 -9 0 -15 -9 -15 -8 0 -87
-9 -176 -20 -89 -12 -169 -19 -178 -17 -24 5 60 27 184 47 143 23 171 24 179
5z m-2370 -19 c193 -114 298 -604 195 -909 -64 -191 -196 -236 -313 -107 -49
55 -118 200 -146 310 -28 109 -38 318 -20 427 39 242 155 355 284 279z m2390
-65 c5 -28 6 -54 2 -58 -9 -10 -336 -6 -371 5 -22 6 -31 15 -33 35 -2 15 0 27
5 28 4 0 89 11 188 23 99 13 185 22 190 21 6 -1 14 -25 19 -54z m581 -32 c165
-28 301 -52 303 -54 2 -2 -31 -6 -72 -10 -81 -8 -97 -19 -43 -30 366 -78 878
-408 1400 -902 31 -30 57 -56 57 -58 0 -2 -45 -34 -100 -71 l-99 -66 -167 7
-167 8 -111 82 c-550 409 -1239 744 -1834 891 l-112 28 -310 -24 c-171 -12
-330 -20 -355 -17 -24 4 -120 23 -212 42 -92 20 -242 52 -333 71 -90 19 -166
37 -169 39 -2 3 18 5 45 5 27 1 72 3 99 5 59 5 360 22 530 30 66 3 141 8 167
11 36 3 104 -11 305 -62 l258 -67 155 12 c323 23 550 45 543 52 -5 3 -75 26
-158 49 -148 42 -191 58 -183 66 3 2 51 7 109 10 57 4 106 8 108 10 2 2 13 2
25 -1 12 -3 156 -28 321 -56z m1230 -43 c161 -95 295 -443 295 -770 l0 -109
-53 49 c-29 27 -71 65 -93 86 -38 33 -42 41 -48 104 -9 89 -48 204 -91 268
-35 52 -95 96 -133 96 -31 0 -82 -49 -107 -101 l-22 -47 -46 30 c-46 30 -47
31 -41 72 23 164 96 304 178 341 43 20 107 12 161 -19z m-855 -57 c0 -25 -4
-30 -17 -26 -10 2 -47 13 -83 23 l-65 19 50 6 c111 13 115 12 115 -22z m-2455
-33 c94 -20 211 -45 260 -55 50 -11 117 -25 150 -32 33 -7 63 -15 68 -19 7 -6
16 -830 9 -830 -2 0 -159 46 -350 101 -191 56 -362 106 -380 111 -18 5 -36 16
-39 24 -3 8 5 51 17 97 45 164 36 420 -21 589 -10 31 -19 59 -19 61 0 9 155
-15 305 -47z m1221 -78 c52 -12 91 -25 87 -28 -5 -4 -111 -17 -238 -29 -126
-13 -239 -24 -250 -27 -93 -18 -184 -174 -215 -368 -12 -75 -14 -288 -4 -365
7 -53 9 -52 -63 -66 l-33 -7 0 431 0 430 43 5 c23 3 80 8 127 11 47 3 114 8
150 11 102 9 253 21 278 23 13 0 66 -9 118 -21z m466 -143 c380 -138 782 -342
1138 -577 146 -97 239 -167 250 -189 9 -16 7 -17 -17 -9 -16 5 -235 68 -488
141 l-460 131 -184 -4 -185 -3 -17 86 c-37 191 -102 344 -185 438 -56 62 -67
63 148 -14z m-745 34 c117 -56 221 -243 275 -492 32 -146 31 -425 0 -541 -39
-143 -96 -237 -163 -272 -124 -64 -279 65 -368 306 -142 387 -87 894 108 997
55 28 92 29 148 2z m2302 -34 c61 -31 128 -168 150 -306 14 -82 14 -84 -3 -70
-7 6 -17 34 -20 62 -15 109 -73 209 -121 209 -24 0 -54 -29 -70 -66 l-10 -24
-47 33 c-26 17 -48 38 -48 45 0 22 41 96 64 114 26 22 68 23 105 3z m816 -268
c1 -1 60 -96 130 -212 70 -116 140 -230 156 -255 15 -25 25 -48 21 -51 -4 -4
-135 -72 -292 -152 -305 -155 -279 -146 -470 -162 -36 -3 -339 -25 -675 -50
-335 -24 -626 -47 -645 -50 -46 -7 -472 64 -486 81 -13 16 -198 533 -192 539
2 2 46 -9 98 -24 101 -30 105 -34 204 -173 14 -19 66 -23 401 -33 105 -3 249
-8 320 -10 245 -10 700 -25 802 -26 l102 -2 230 153 c127 84 231 157 231 162
0 6 -70 193 -105 279 -6 15 1 15 81 2 49 -7 89 -15 89 -16z m-4197 -281 c86
-25 263 -77 392 -114 164 -48 236 -74 238 -84 3 -13 11 -14 61 -3 l58 12 12
-61 c15 -72 56 -195 82 -249 11 -20 17 -37 15 -37 -3 0 -26 28 -53 62 -66 87
-152 177 -187 195 -16 9 -77 33 -135 55 -58 22 -151 61 -206 88 -56 26 -125
53 -155 59 -44 8 -332 41 -365 41 -4 0 3 9 17 19 13 11 33 36 43 56 12 21 21
30 23 22 2 -9 60 -31 160 -61z m2447 -31 c105 -30 296 -84 425 -120 337 -95
370 -105 370 -115 0 -4 -26 -7 -57 -5 -32 2 -155 7 -273 10 -118 3 -327 10
-465 15 -137 5 -279 10 -315 10 l-65 1 -60 82 c-45 61 -68 84 -92 91 -30 8
-33 13 -33 47 l0 38 118 3 c203 5 244 0 447 -57z m837 -244 c-9 -2 -22 5 -29
15 -22 30 -14 37 15 12 22 -17 25 -24 14 -27z"/>
<path d="M212 1524 c-54 -37 -89 -174 -76 -299 17 -178 97 -315 185 -315 34 0
85 60 103 120 22 74 21 218 -3 308 -41 158 -133 240 -209 186z m99 -17 c73
-49 125 -215 116 -369 -14 -216 -127 -282 -217 -125 -66 116 -81 342 -29 443
23 45 56 73 85 74 6 0 26 -10 45 -23z"/>
<path d="M271 1364 c-49 -62 -34 -240 26 -306 9 -10 29 -18 45 -18 81 0 92
229 16 316 -36 41 -60 43 -87 8z"/>
<path d="M1166 1012 c-21 -70 -40 -132 -43 -139 -3 -7 23 -20 68 -33 39 -12
77 -24 85 -27 9 -3 23 29 48 109 58 184 59 170 -21 196 -38 12 -76 22 -84 22
-9 0 -27 -42 -53 -128z"/>
<path d="M1371 952 c-23 -72 -41 -135 -41 -140 0 -16 60 -34 65 -19 16 45 84
272 81 274 -1 2 -16 6 -33 9 l-31 6 -41 -130z"/>
<path d="M1476 928 c-21 -68 -41 -130 -43 -139 -3 -11 5 -20 28 -28 18 -6 33
-10 34 -9 7 8 86 280 83 284 -3 2 -18 6 -34 10 l-30 6 -38 -124z"/>
<path d="M2054 1060 c-59 -23 -102 -127 -111 -266 -12 -186 58 -399 151 -455
110 -67 200 39 213 250 16 271 -120 525 -253 471z m111 -42 c166 -145 173
-643 9 -684 -122 -31 -248 263 -214 503 26 186 112 263 205 181z"/>
<path d="M2123 875 c-62 -44 -72 -222 -17 -331 51 -102 112 -106 149 -10 41
106 -3 304 -75 341 -35 18 -31 18 -57 0z"/>
<path d="M957 4394 c-16 -19 -27 -38 -24 -40 2 -3 19 13 37 36 17 22 28 40 23
40 -4 0 -21 -16 -36 -36z"/>
<path d="M864 4273 c-10 -15 -22 -34 -27 -40 -5 -7 -6 -13 -1 -13 11 0 57 70
51 77 -3 3 -13 -8 -23 -24z"/>
<path d="M772 4115 c-12 -25 -18 -45 -13 -45 10 0 46 78 39 85 -2 2 -14 -16
-26 -40z"/>
<path d="M707 3956 c-9 -26 -12 -46 -8 -46 9 0 35 80 28 87 -3 2 -12 -16 -20
-41z"/>
<path d="M666 3799 c-7 -37 -8 -64 -2 -58 9 9 24 89 16 89 -4 0 -10 -14 -14
-31z"/>
<path d="M646 3654 c-10 -25 -7 -74 4 -74 6 0 10 20 10 45 0 47 -4 55 -14 29z"/>
<path d="M641 3483 c1 -10 5 -31 9 -48 7 -27 8 -25 9 18 0 26 -3 47 -9 47 -5
0 -9 -8 -9 -17z"/>
<path d="M671 3315 c0 -11 6 -33 14 -50 l15 -30 -6 35 c-8 44 -23 75 -23 45z"/>
<path d="M1353 3263 c15 -2 39 -2 55 0 15 2 2 4 -28 4 -30 0 -43 -2 -27 -4z"/>
<path d="M1211 3240 c-24 -11 -42 -22 -39 -25 7 -7 88 27 88 37 0 10 2 11 -49
-12z"/>
<path d="M1500 3243 c0 -5 15 -17 33 -28 46 -28 54 -30 38 -11 -17 20 -71 50
-71 39z"/>
<path d="M741 3135 c19 -32 39 -53 39 -41 0 12 -43 76 -51 76 -4 0 1 -16 12
-35z"/>
<path d="M1077 3134 c-16 -19 -27 -37 -25 -40 3 -2 19 14 37 36 17 22 28 40
24 40 -4 0 -21 -16 -36 -36z"/>
<path d="M1616 3085 c4 -27 8 -52 10 -54 9 -10 3 76 -7 89 -7 11 -8 1 -3 -35z"/>
<path d="M820 3034 c0 -13 58 -69 65 -63 2 3 -11 21 -30 39 -19 19 -35 29 -35
24z"/>
<path d="M1001 2990 c-7 -23 -10 -44 -8 -47 7 -6 29 65 25 79 -2 6 -10 -8 -17
-32z"/>
<path d="M1586 2924 c-24 -51 -12 -55 14 -5 11 23 17 41 12 41 -5 0 -16 -16
-26 -36z"/>
<path d="M950 2923 c0 -4 18 -18 40 -31 22 -12 40 -19 40 -14 0 5 -18 18 -40
31 -22 12 -40 19 -40 14z"/>
<path d="M966 2832 c-4 -24 -5 -46 -2 -49 12 -12 17 6 14 48 l-3 44 -9 -43z"/>
<path d="M1100 2841 c0 -10 78 -36 86 -29 3 3 -15 13 -40 21 -26 9 -46 12 -46
8z"/>
<path d="M1468 2811 c-21 -9 -38 -19 -38 -24 0 -7 68 17 79 28 12 12 -7 10
-41 -4z"/>
<path d="M1260 2790 c0 -5 21 -10 47 -10 55 0 54 5 -4 14 -27 4 -43 2 -43 -4z"/>
<path d="M975 2665 c4 -22 11 -44 17 -50 7 -7 8 1 3 25 -11 53 -28 74 -20 25z"/>
<path d="M4580 2596 c0 -9 5 -16 10 -16 6 0 10 4 10 9 0 6 -4 13 -10 16 -5 3
-10 -1 -10 -9z"/>
<path d="M4667 2583 c-4 -3 -7 -11 -7 -17 0 -6 5 -5 12 2 6 6 9 14 7 17 -3 3
-9 2 -12 -2z"/>
<path d="M1020 2536 c0 -11 43 -77 47 -72 6 6 -24 63 -37 71 -5 3 -10 4 -10 1z"/>
<path d="M4560 2510 c0 -5 4 -10 9 -10 6 0 13 5 16 10 3 6 -1 10 -9 10 -9 0
-16 -4 -16 -10z"/>
<path d="M4642 2498 c2 -6 10 -14 16 -16 7 -2 10 2 6 12 -7 18 -28 22 -22 4z"/>
<path d="M405 2471 c-9 -18 -11 -32 -5 -36 8 -5 40 43 40 60 0 16 -22 1 -35
-24z"/>
<path d="M300 2450 c0 -14 38 -32 58 -28 13 3 9 8 -15 21 -37 20 -43 21 -43 7z"/>
<path d="M410 2395 c0 -8 62 -37 68 -31 8 9 -30 35 -50 36 -10 0 -18 -2 -18
-5z"/>
<path d="M356 2368 c-18 -25 -21 -48 -7 -48 10 0 36 58 28 66 -3 3 -12 -5 -21
-18z"/>
</g>
</svg>
